<?xml version="1.0" encoding="utf-8" standalone="no"?>
<!DOCTYPE svg PUBLIC "-//W3C//DTD SVG 1.1//EN"
  "http://www.w3.org/Graphics/SVG/1.1/DTD/svg11.dtd">
<svg xmlns:xlink="http://www.w3.org/1999/xlink" width="1080pt" height="280.8pt" viewBox="0 0 1080 280.8" xmlns="http://www.w3.org/2000/svg" version="1.1">
 <metadata>
  <rdf:RDF xmlns:dc="http://purl.org/dc/elements/1.1/" xmlns:cc="http://creativecommons.org/ns#" xmlns:rdf="http://www.w3.org/1999/02/22-rdf-syntax-ns#">
   <cc:Work>
    <dc:type rdf:resource="http://purl.org/dc/dcmitype/StillImage"/>
    <dc:date>2025-05-30T15:09:31.886567</dc:date>
    <dc:format>image/svg+xml</dc:format>
    <dc:creator>
     <cc:Agent>
      <dc:title>Matplotlib v3.10.3, https://matplotlib.org/</dc:title>
     </cc:Agent>
    </dc:creator>
   </cc:Work>
  </rdf:RDF>
 </metadata>
 <defs>
  <style type="text/css">*{stroke-linejoin: round; stroke-linecap: butt}</style>
 </defs>
 <g id="figure_1">
  <g id="patch_1">
   <path d="M 0 280.8 
L 1080 280.8 
L 1080 0 
L 0 0 
z
" style="fill: #ffffff"/>
  </g>
  <g id="axes_1">
   <g id="patch_2">
    <path d="M 136.54428 119.969379 
L 229.201107 119.969379 
L 229.201107 162.573517 
L 136.54428 162.573517 
z
" clip-path="url(#p8decaa2609)" style="fill: #ffffff"/>
   </g>
   <g id="patch_3">
    <path d="M 229.201107 119.969379 
L 290.972325 119.969379 
L 290.972325 162.573517 
L 229.201107 162.573517 
z
" clip-path="url(#p8decaa2609)" style="fill: #ffffff"/>
   </g>
   <g id="patch_4">
    <path d="M 290.972325 119.969379 
L 352.743542 119.969379 
L 352.743542 162.573517 
L 290.972325 162.573517 
z
" clip-path="url(#p8decaa2609)" style="fill: #ffffff"/>
   </g>
   <g id="patch_5">
    <path d="M 352.743542 119.969379 
L 414.51476 119.969379 
L 414.51476 162.573517 
L 352.743542 162.573517 
z
" clip-path="url(#p8decaa2609)" style="fill: #ffffff"/>
   </g>
   <g id="patch_6">
    <path d="M 414.51476 119.969379 
L 476.285978 119.969379 
L 476.285978 162.573517 
L 414.51476 162.573517 
z
" clip-path="url(#p8decaa2609)" style="fill: #ffffff"/>
   </g>
   <g id="patch_7">
    <path d="M 476.285978 119.969379 
L 538.057196 119.969379 
L 538.057196 162.573517 
L 476.285978 162.573517 
z
" clip-path="url(#p8decaa2609)" style="fill: #ffffff"/>
   </g>
   <g id="patch_8">
    <path d="M 538.057196 119.969379 
L 599.828413 119.969379 
L 599.828413 162.573517 
L 538.057196 162.573517 
z
" clip-path="url(#p8decaa2609)" style="fill: #ffffff"/>
   </g>
   <g id="patch_9">
    <path d="M 599.828413 119.969379 
L 661.599631 119.969379 
L 661.599631 162.573517 
L 599.828413 162.573517 
z
" clip-path="url(#p8decaa2609)" style="fill: #ffffff"/>
   </g>
   <g id="patch_10">
    <path d="M 661.599631 119.969379 
L 723.370849 119.969379 
L 723.370849 162.573517 
L 661.599631 162.573517 
z
" clip-path="url(#p8decaa2609)" style="fill: #ffffff"/>
   </g>
   <g id="patch_11">
    <path d="M 723.370849 119.969379 
L 785.142066 119.969379 
L 785.142066 162.573517 
L 723.370849 162.573517 
z
" clip-path="url(#p8decaa2609)" style="fill: #ffffff"/>
   </g>
   <g id="patch_12">
    <path d="M 785.142066 119.969379 
L 846.913284 119.969379 
L 846.913284 162.573517 
L 785.142066 162.573517 
z
" clip-path="url(#p8decaa2609)" style="fill: #ffffff"/>
   </g>
   <g id="patch_13">
    <path d="M 785.142066 119.969379 
L 846.913284 119.969379 
L 846.913284 162.573517 
L 785.142066 162.573517 
z
" clip-path="url(#p8decaa2609)" style="fill: #ffffff"/>
   </g>
   <g id="patch_14">
    <path d="M 846.913284 119.969379 
L 908.684502 119.969379 
L 908.684502 162.573517 
L 846.913284 162.573517 
z
" clip-path="url(#p8decaa2609)" style="fill: #ffffff"/>
   </g>
   <g id="patch_15">
    <path d="M 846.913284 119.969379 
L 908.684502 119.969379 
L 908.684502 162.573517 
L 846.913284 162.573517 
z
" clip-path="url(#p8decaa2609)" style="fill: #ffffff"/>
   </g>
   <g id="patch_16">
    <path d="M 908.684502 119.969379 
L 970.45572 119.969379 
L 970.45572 162.573517 
L 908.684502 162.573517 
z
" clip-path="url(#p8decaa2609)" style="fill: #ffffff"/>
   </g>
   <g id="patch_17">
    <path d="M 908.684502 119.969379 
L 970.45572 119.969379 
L 970.45572 162.573517 
L 908.684502 162.573517 
z
" clip-path="url(#p8decaa2609)" style="fill: #ffffff"/>
   </g>
   <g id="patch_18">
    <path d="M 136.54428 162.573517 
L 229.201107 162.573517 
L 229.201107 205.177655 
L 136.54428 205.177655 
z
" clip-path="url(#p8decaa2609)" style="fill: #ffffff"/>
   </g>
   <g id="patch_19">
    <path d="M 229.201107 162.573517 
L 290.972325 162.573517 
L 290.972325 205.177655 
L 229.201107 205.177655 
z
" clip-path="url(#p8decaa2609)" style="fill: #ffffff"/>
   </g>
   <g id="patch_20">
    <path d="M 290.972325 162.573517 
L 352.743542 162.573517 
L 352.743542 205.177655 
L 290.972325 205.177655 
z
" clip-path="url(#p8decaa2609)" style="fill: #ffffff"/>
   </g>
   <g id="patch_21">
    <path d="M 352.743542 162.573517 
L 414.51476 162.573517 
L 414.51476 205.177655 
L 352.743542 205.177655 
z
" clip-path="url(#p8decaa2609)" style="fill: #ffffff"/>
   </g>
   <g id="patch_22">
    <path d="M 414.51476 162.573517 
L 476.285978 162.573517 
L 476.285978 205.177655 
L 414.51476 205.177655 
z
" clip-path="url(#p8decaa2609)" style="fill: #ffffff"/>
   </g>
   <g id="patch_23">
    <path d="M 476.285978 162.573517 
L 538.057196 162.573517 
L 538.057196 205.177655 
L 476.285978 205.177655 
z
" clip-path="url(#p8decaa2609)" style="fill: #ffffff"/>
   </g>
   <g id="patch_24">
    <path d="M 538.057196 162.573517 
L 599.828413 162.573517 
L 599.828413 205.177655 
L 538.057196 205.177655 
z
" clip-path="url(#p8decaa2609)" style="fill: #ffffff"/>
   </g>
   <g id="patch_25">
    <path d="M 599.828413 162.573517 
L 661.599631 162.573517 
L 661.599631 205.177655 
L 599.828413 205.177655 
z
" clip-path="url(#p8decaa2609)" style="fill: #ffffff"/>
   </g>
   <g id="patch_26">
    <path d="M 661.599631 162.573517 
L 723.370849 162.573517 
L 723.370849 205.177655 
L 661.599631 205.177655 
z
" clip-path="url(#p8decaa2609)" style="fill: #ffffff"/>
   </g>
   <g id="patch_27">
    <path d="M 723.370849 162.573517 
L 785.142066 162.573517 
L 785.142066 205.177655 
L 723.370849 205.177655 
z
" clip-path="url(#p8decaa2609)" style="fill: #ffffff"/>
   </g>
   <g id="patch_28">
    <path d="M 785.142066 162.573517 
L 846.913284 162.573517 
L 846.913284 205.177655 
L 785.142066 205.177655 
z
" clip-path="url(#p8decaa2609)" style="fill: #ffffff"/>
   </g>
   <g id="patch_29">
    <path d="M 785.142066 162.573517 
L 846.913284 162.573517 
L 846.913284 205.177655 
L 785.142066 205.177655 
z
" clip-path="url(#p8decaa2609)" style="fill: #ffffff"/>
   </g>
   <g id="patch_30">
    <path d="M 846.913284 162.573517 
L 908.684502 162.573517 
L 908.684502 205.177655 
L 846.913284 205.177655 
z
" clip-path="url(#p8decaa2609)" style="fill: #ffffff"/>
   </g>
   <g id="patch_31">
    <path d="M 846.913284 162.573517 
L 908.684502 162.573517 
L 908.684502 205.177655 
L 846.913284 205.177655 
z
" clip-path="url(#p8decaa2609)" style="fill: #ffffff"/>
   </g>
   <g id="patch_32">
    <path d="M 908.684502 162.573517 
L 970.45572 162.573517 
L 970.45572 205.177655 
L 908.684502 205.177655 
z
" clip-path="url(#p8decaa2609)" style="fill: #ffffff"/>
   </g>
   <g id="patch_33">
    <path d="M 908.684502 162.573517 
L 970.45572 162.573517 
L 970.45572 205.177655 
L 908.684502 205.177655 
z
" clip-path="url(#p8decaa2609)" style="fill: #ffffff"/>
   </g>
   <g id="patch_34">
    <path d="M 136.54428 205.177655 
L 229.201107 205.177655 
L 229.201107 247.781793 
L 136.54428 247.781793 
z
" clip-path="url(#p8decaa2609)" style="fill: #ffffff"/>
   </g>
   <g id="patch_35">
    <path d="M 229.201107 205.177655 
L 290.972325 205.177655 
L 290.972325 247.781793 
L 229.201107 247.781793 
z
" clip-path="url(#p8decaa2609)" style="fill: #ffffff"/>
   </g>
   <g id="patch_36">
    <path d="M 290.972325 205.177655 
L 352.743542 205.177655 
L 352.743542 247.781793 
L 290.972325 247.781793 
z
" clip-path="url(#p8decaa2609)" style="fill: #ffffff"/>
   </g>
   <g id="patch_37">
    <path d="M 352.743542 205.177655 
L 414.51476 205.177655 
L 414.51476 247.781793 
L 352.743542 247.781793 
z
" clip-path="url(#p8decaa2609)" style="fill: #ffffff"/>
   </g>
   <g id="patch_38">
    <path d="M 414.51476 205.177655 
L 476.285978 205.177655 
L 476.285978 247.781793 
L 414.51476 247.781793 
z
" clip-path="url(#p8decaa2609)" style="fill: #ffffff"/>
   </g>
   <g id="patch_39">
    <path d="M 476.285978 205.177655 
L 538.057196 205.177655 
L 538.057196 247.781793 
L 476.285978 247.781793 
z
" clip-path="url(#p8decaa2609)" style="fill: #ffffff"/>
   </g>
   <g id="patch_40">
    <path d="M 538.057196 205.177655 
L 599.828413 205.177655 
L 599.828413 247.781793 
L 538.057196 247.781793 
z
" clip-path="url(#p8decaa2609)" style="fill: #ffffff"/>
   </g>
   <g id="patch_41">
    <path d="M 599.828413 205.177655 
L 661.599631 205.177655 
L 661.599631 247.781793 
L 599.828413 247.781793 
z
" clip-path="url(#p8decaa2609)" style="fill: #ffffff"/>
   </g>
   <g id="patch_42">
    <path d="M 661.599631 205.177655 
L 723.370849 205.177655 
L 723.370849 247.781793 
L 661.599631 247.781793 
z
" clip-path="url(#p8decaa2609)" style="fill: #ffffff"/>
   </g>
   <g id="patch_43">
    <path d="M 723.370849 205.177655 
L 785.142066 205.177655 
L 785.142066 247.781793 
L 723.370849 247.781793 
z
" clip-path="url(#p8decaa2609)" style="fill: #ffffff"/>
   </g>
   <g id="patch_44">
    <path d="M 785.142066 205.177655 
L 846.913284 205.177655 
L 846.913284 247.781793 
L 785.142066 247.781793 
z
" clip-path="url(#p8decaa2609)" style="fill: #ffffff"/>
   </g>
   <g id="patch_45">
    <path d="M 785.142066 205.177655 
L 846.913284 205.177655 
L 846.913284 247.781793 
L 785.142066 247.781793 
z
" clip-path="url(#p8decaa2609)" style="fill: #ffffff"/>
   </g>
   <g id="patch_46">
    <path d="M 846.913284 205.177655 
L 908.684502 205.177655 
L 908.684502 247.781793 
L 846.913284 247.781793 
z
" clip-path="url(#p8decaa2609)" style="fill: #ffffff"/>
   </g>
   <g id="patch_47">
    <path d="M 846.913284 205.177655 
L 908.684502 205.177655 
L 908.684502 247.781793 
L 846.913284 247.781793 
z
" clip-path="url(#p8decaa2609)" style="fill: #ffffff"/>
   </g>
   <g id="patch_48">
    <path d="M 908.684502 205.177655 
L 970.45572 205.177655 
L 970.45572 247.781793 
L 908.684502 247.781793 
z
" clip-path="url(#p8decaa2609)" style="fill: #ffffff"/>
   </g>
   <g id="patch_49">
    <path d="M 908.684502 205.177655 
L 970.45572 205.177655 
L 970.45572 247.781793 
L 908.684502 247.781793 
z
" clip-path="url(#p8decaa2609)" style="fill: #ffffff"/>
   </g>
   <g id="patch_50">
    <path d="M 136.54428 77.365241 
L 229.201107 77.365241 
L 229.201107 119.969379 
L 136.54428 119.969379 
z
" clip-path="url(#p8decaa2609)" style="fill: #ffffff"/>
   </g>
   <g id="patch_51">
    <path d="M 229.201107 77.365241 
L 290.972325 77.365241 
L 290.972325 119.969379 
L 229.201107 119.969379 
z
" clip-path="url(#p8decaa2609)" style="fill: #ffffff"/>
   </g>
   <g id="patch_52">
    <path d="M 290.972325 77.365241 
L 352.743542 77.365241 
L 352.743542 119.969379 
L 290.972325 119.969379 
z
" clip-path="url(#p8decaa2609)" style="fill: #ffffff"/>
   </g>
   <g id="patch_53">
    <path d="M 352.743542 77.365241 
L 414.51476 77.365241 
L 414.51476 119.969379 
L 352.743542 119.969379 
z
" clip-path="url(#p8decaa2609)" style="fill: #ffffff"/>
   </g>
   <g id="patch_54">
    <path d="M 414.51476 77.365241 
L 476.285978 77.365241 
L 476.285978 119.969379 
L 414.51476 119.969379 
z
" clip-path="url(#p8decaa2609)" style="fill: #ffffff"/>
   </g>
   <g id="patch_55">
    <path d="M 476.285978 77.365241 
L 538.057196 77.365241 
L 538.057196 119.969379 
L 476.285978 119.969379 
z
" clip-path="url(#p8decaa2609)" style="fill: #ffffff"/>
   </g>
   <g id="patch_56">
    <path d="M 538.057196 77.365241 
L 599.828413 77.365241 
L 599.828413 119.969379 
L 538.057196 119.969379 
z
" clip-path="url(#p8decaa2609)" style="fill: #ffffff"/>
   </g>
   <g id="patch_57">
    <path d="M 599.828413 77.365241 
L 661.599631 77.365241 
L 661.599631 119.969379 
L 599.828413 119.969379 
z
" clip-path="url(#p8decaa2609)" style="fill: #ffffff"/>
   </g>
   <g id="patch_58">
    <path d="M 661.599631 77.365241 
L 723.370849 77.365241 
L 723.370849 119.969379 
L 661.599631 119.969379 
z
" clip-path="url(#p8decaa2609)" style="fill: #ffffff"/>
   </g>
   <g id="patch_59">
    <path d="M 723.370849 77.365241 
L 785.142066 77.365241 
L 785.142066 119.969379 
L 723.370849 119.969379 
z
" clip-path="url(#p8decaa2609)" style="fill: #ffffff"/>
   </g>
   <g id="patch_60">
    <path d="M 785.142066 77.365241 
L 846.913284 77.365241 
L 846.913284 119.969379 
L 785.142066 119.969379 
z
" clip-path="url(#p8decaa2609)" style="fill: #ffffff"/>
   </g>
   <g id="patch_61">
    <path d="M 846.913284 77.365241 
L 908.684502 77.365241 
L 908.684502 119.969379 
L 846.913284 119.969379 
z
" clip-path="url(#p8decaa2609)" style="fill: #ffffff"/>
   </g>
   <g id="patch_62">
    <path d="M 908.684502 77.365241 
L 970.45572 77.365241 
L 970.45572 119.969379 
L 908.684502 119.969379 
z
" clip-path="url(#p8decaa2609)" style="fill: #ffffff"/>
   </g>
   <g id="patch_63">
    <path d="M 476.285978 77.365241 
L 785.142066 77.365241 
L 785.142066 119.969379 
L 476.285978 119.969379 
z
" clip-path="url(#p8decaa2609)" style="fill: #ffffff"/>
   </g>
   <g id="patch_64">
    <path d="M 785.142066 77.365241 
L 970.45572 77.365241 
L 970.45572 119.969379 
L 785.142066 119.969379 
z
" clip-path="url(#p8decaa2609)" style="fill: #ffffff"/>
   </g>
   <g id="patch_65">
    <path d="M 229.201107 77.365241 
L 476.285978 77.365241 
L 476.285978 119.969379 
L 229.201107 119.969379 
z
" clip-path="url(#p8decaa2609)" style="fill: #ffffff"/>
   </g>
   <g id="patch_66">
    <path d="M 785.142066 119.969379 
L 846.913284 119.969379 
L 846.913284 162.573517 
L 785.142066 162.573517 
z
" clip-path="url(#p8decaa2609)" style="fill: #ffffff"/>
   </g>
   <g id="patch_67">
    <path d="M 846.913284 119.969379 
L 908.684502 119.969379 
L 908.684502 162.573517 
L 846.913284 162.573517 
z
" clip-path="url(#p8decaa2609)" style="fill: #ffffff"/>
   </g>
   <g id="patch_68">
    <path d="M 908.684502 119.969379 
L 970.45572 119.969379 
L 970.45572 162.573517 
L 908.684502 162.573517 
z
" clip-path="url(#p8decaa2609)" style="fill: #ffffff"/>
   </g>
   <g id="patch_69">
    <path d="M 785.142066 162.573517 
L 846.913284 162.573517 
L 846.913284 205.177655 
L 785.142066 205.177655 
z
" clip-path="url(#p8decaa2609)" style="fill: #ffffff"/>
   </g>
   <g id="patch_70">
    <path d="M 846.913284 162.573517 
L 908.684502 162.573517 
L 908.684502 205.177655 
L 846.913284 205.177655 
z
" clip-path="url(#p8decaa2609)" style="fill: #ffffff"/>
   </g>
   <g id="patch_71">
    <path d="M 908.684502 162.573517 
L 970.45572 162.573517 
L 970.45572 205.177655 
L 908.684502 205.177655 
z
" clip-path="url(#p8decaa2609)" style="fill: #ffffff"/>
   </g>
   <g id="patch_72">
    <path d="M 785.142066 205.177655 
L 846.913284 205.177655 
L 846.913284 247.781793 
L 785.142066 247.781793 
z
" clip-path="url(#p8decaa2609)" style="fill: #ffffff"/>
   </g>
   <g id="patch_73">
    <path d="M 846.913284 205.177655 
L 908.684502 205.177655 
L 908.684502 247.781793 
L 846.913284 247.781793 
z
" clip-path="url(#p8decaa2609)" style="fill: #ffffff"/>
   </g>
   <g id="patch_74">
    <path d="M 908.684502 205.177655 
L 970.45572 205.177655 
L 970.45572 247.781793 
L 908.684502 247.781793 
z
" clip-path="url(#p8decaa2609)" style="fill: #ffffff"/>
   </g>
   <g id="line2d_1">
    <path d="M 491.728782 77.365241 
L 769.699262 77.365241 
" clip-path="url(#p8decaa2609)" style="fill: none; stroke: #000000; stroke-width: 0.2; stroke-linecap: square"/>
   </g>
   <g id="line2d_2">
    <path d="M 794.407749 77.365241 
L 961.190037 77.365241 
" clip-path="url(#p8decaa2609)" style="fill: none; stroke: #000000; stroke-width: 0.2; stroke-linecap: square"/>
   </g>
   <g id="line2d_3">
    <path d="M 241.555351 77.365241 
L 463.931734 77.365241 
" clip-path="url(#p8decaa2609)" style="fill: none; stroke: #000000; stroke-width: 0.2; stroke-linecap: square"/>
   </g>
   <g id="line2d_4">
    <path d="M 136.54428 119.969379 
L 970.45572 119.969379 
" clip-path="url(#p8decaa2609)" style="fill: none; stroke: #000000; stroke-linecap: square"/>
   </g>
   <g id="line2d_5">
    <path d="M 136.54428 247.781793 
L 970.45572 247.781793 
" clip-path="url(#p8decaa2609)" style="fill: none; stroke: #000000; stroke-linecap: square"/>
   </g>
   <g id="line2d_6">
    <path d="M 136.54428 162.573517 
L 970.45572 162.573517 
" clip-path="url(#p8decaa2609)" style="fill: none; stroke-dasharray: 1,5; stroke-dashoffset: 0; stroke: #000000"/>
   </g>
   <g id="line2d_7">
    <path d="M 136.54428 205.177655 
L 970.45572 205.177655 
" clip-path="url(#p8decaa2609)" style="fill: none; stroke-dasharray: 1,5; stroke-dashoffset: 0; stroke: #000000"/>
   </g>
   <g id="line2d_8">
    <path d="M 785.142066 119.969379 
L 785.142066 247.781793 
" clip-path="url(#p8decaa2609)" style="fill: none; stroke: #000000; stroke-linecap: square"/>
   </g>
   <g id="text_1">
    <!-- X_scVI -->
    <g transform="translate(145.809963 143.752698) scale(0.1 -0.1)">
     <defs>
      <path id="DejaVuSans-Bold-58" d="M 3188 2381 
L 4806 0 
L 3553 0 
L 2463 1594 
L 1381 0 
L 122 0 
L 1741 2381 
L 184 4666 
L 1441 4666 
L 2463 3163 
L 3481 4666 
L 4744 4666 
L 3188 2381 
z
" transform="scale(0.015625)"/>
      <path id="DejaVuSans-Bold-5f" d="M 3200 -916 
L 3200 -1509 
L 0 -1509 
L 0 -916 
L 3200 -916 
z
" transform="scale(0.015625)"/>
      <path id="DejaVuSans-Bold-73" d="M 3272 3391 
L 3272 2541 
Q 2913 2691 2578 2766 
Q 2244 2841 1947 2841 
Q 1628 2841 1473 2761 
Q 1319 2681 1319 2516 
Q 1319 2381 1436 2309 
Q 1553 2238 1856 2203 
L 2053 2175 
Q 2913 2066 3209 1816 
Q 3506 1566 3506 1031 
Q 3506 472 3093 190 
Q 2681 -91 1863 -91 
Q 1516 -91 1145 -36 
Q 775 19 384 128 
L 384 978 
Q 719 816 1070 734 
Q 1422 653 1784 653 
Q 2113 653 2278 743 
Q 2444 834 2444 1013 
Q 2444 1163 2330 1236 
Q 2216 1309 1875 1350 
L 1678 1375 
Q 931 1469 631 1722 
Q 331 1975 331 2491 
Q 331 3047 712 3315 
Q 1094 3584 1881 3584 
Q 2191 3584 2531 3537 
Q 2872 3491 3272 3391 
z
" transform="scale(0.015625)"/>
      <path id="DejaVuSans-Bold-63" d="M 3366 3391 
L 3366 2478 
Q 3138 2634 2908 2709 
Q 2678 2784 2431 2784 
Q 1963 2784 1702 2511 
Q 1441 2238 1441 1747 
Q 1441 1256 1702 982 
Q 1963 709 2431 709 
Q 2694 709 2930 787 
Q 3166 866 3366 1019 
L 3366 103 
Q 3103 6 2833 -42 
Q 2563 -91 2291 -91 
Q 1344 -91 809 395 
Q 275 881 275 1747 
Q 275 2613 809 3098 
Q 1344 3584 2291 3584 
Q 2566 3584 2833 3536 
Q 3100 3488 3366 3391 
z
" transform="scale(0.015625)"/>
      <path id="DejaVuSans-Bold-56" d="M 31 4666 
L 1241 4666 
L 2478 1222 
L 3713 4666 
L 4922 4666 
L 3194 0 
L 1759 0 
L 31 4666 
z
" transform="scale(0.015625)"/>
      <path id="DejaVuSans-Bold-49" d="M 588 4666 
L 1791 4666 
L 1791 0 
L 588 0 
L 588 4666 
z
" transform="scale(0.015625)"/>
     </defs>
     <use xlink:href="#DejaVuSans-Bold-58"/>
     <use xlink:href="#DejaVuSans-Bold-5f" transform="translate(77.099609 0)"/>
     <use xlink:href="#DejaVuSans-Bold-73" transform="translate(127.099609 0)"/>
     <use xlink:href="#DejaVuSans-Bold-63" transform="translate(186.621094 0)"/>
     <use xlink:href="#DejaVuSans-Bold-56" transform="translate(245.898438 0)"/>
     <use xlink:href="#DejaVuSans-Bold-49" transform="translate(323.291016 0)"/>
    </g>
   </g>
   <g id="text_2">
    <g id="patch_75">
     <path d="M 260.086716 154.904261 
C 263.70218 154.904261 267.170051 153.467822 269.72657 150.911302 
C 272.283089 148.354783 273.719528 144.886912 273.719528 141.271448 
C 273.719528 137.655984 272.283089 134.188113 269.72657 131.631594 
C 267.170051 129.075075 263.70218 127.638636 260.086716 127.638636 
C 256.471252 127.638636 253.003381 129.075075 250.446862 131.631594 
C 247.890342 134.188113 246.453903 137.655984 246.453903 141.271448 
C 246.453903 144.886912 247.890342 148.354783 250.446862 150.911302 
C 253.003381 153.467822 256.471252 154.904261 260.086716 154.904261 
z
" style="fill: #93d090; stroke: #93d090; stroke-linejoin: miter"/>
    </g>
    <!-- 0.76 -->
    <g transform="translate(248.953903 144.030823) scale(0.1 -0.1)">
     <defs>
      <path id="DejaVuSans-30" d="M 2034 4250 
Q 1547 4250 1301 3770 
Q 1056 3291 1056 2328 
Q 1056 1369 1301 889 
Q 1547 409 2034 409 
Q 2525 409 2770 889 
Q 3016 1369 3016 2328 
Q 3016 3291 2770 3770 
Q 2525 4250 2034 4250 
z
M 2034 4750 
Q 2819 4750 3233 4129 
Q 3647 3509 3647 2328 
Q 3647 1150 3233 529 
Q 2819 -91 2034 -91 
Q 1250 -91 836 529 
Q 422 1150 422 2328 
Q 422 3509 836 4129 
Q 1250 4750 2034 4750 
z
" transform="scale(0.015625)"/>
      <path id="DejaVuSans-2e" d="M 684 794 
L 1344 794 
L 1344 0 
L 684 0 
L 684 794 
z
" transform="scale(0.015625)"/>
      <path id="DejaVuSans-37" d="M 525 4666 
L 3525 4666 
L 3525 4397 
L 1831 0 
L 1172 0 
L 2766 4134 
L 525 4134 
L 525 4666 
z
" transform="scale(0.015625)"/>
      <path id="DejaVuSans-36" d="M 2113 2584 
Q 1688 2584 1439 2293 
Q 1191 2003 1191 1497 
Q 1191 994 1439 701 
Q 1688 409 2113 409 
Q 2538 409 2786 701 
Q 3034 994 3034 1497 
Q 3034 2003 2786 2293 
Q 2538 2584 2113 2584 
z
M 3366 4563 
L 3366 3988 
Q 3128 4100 2886 4159 
Q 2644 4219 2406 4219 
Q 1781 4219 1451 3797 
Q 1122 3375 1075 2522 
Q 1259 2794 1537 2939 
Q 1816 3084 2150 3084 
Q 2853 3084 3261 2657 
Q 3669 2231 3669 1497 
Q 3669 778 3244 343 
Q 2819 -91 2113 -91 
Q 1303 -91 875 529 
Q 447 1150 447 2328 
Q 447 3434 972 4092 
Q 1497 4750 2381 4750 
Q 2619 4750 2861 4703 
Q 3103 4656 3366 4563 
z
" transform="scale(0.015625)"/>
     </defs>
     <use xlink:href="#DejaVuSans-30"/>
     <use xlink:href="#DejaVuSans-2e" transform="translate(63.623047 0)"/>
     <use xlink:href="#DejaVuSans-37" transform="translate(95.410156 0)"/>
     <use xlink:href="#DejaVuSans-36" transform="translate(159.033203 0)"/>
    </g>
   </g>
   <g id="text_3">
    <g id="patch_76">
     <path d="M 321.857934 154.904261 
C 325.473398 154.904261 328.941269 153.467822 331.497788 150.911302 
C 334.054307 148.354783 335.490746 144.886912 335.490746 141.271448 
C 335.490746 137.655984 334.054307 134.188113 331.497788 131.631594 
C 328.941269 129.075075 325.473398 127.638636 321.857934 127.638636 
C 318.242469 127.638636 314.774599 129.075075 312.218079 131.631594 
C 309.66156 134.188113 308.225121 137.655984 308.225121 141.271448 
C 308.225121 144.886912 309.66156 148.354783 312.218079 150.911302 
C 314.774599 153.467822 318.242469 154.904261 321.857934 154.904261 
z
" style="fill: #60b266; stroke: #60b266; stroke-linejoin: miter"/>
    </g>
    <!-- 0.75 -->
    <g style="fill: #ffffff" transform="translate(310.725121 144.030823) scale(0.1 -0.1)">
     <defs>
      <path id="DejaVuSans-35" d="M 691 4666 
L 3169 4666 
L 3169 4134 
L 1269 4134 
L 1269 2991 
Q 1406 3038 1543 3061 
Q 1681 3084 1819 3084 
Q 2600 3084 3056 2656 
Q 3513 2228 3513 1497 
Q 3513 744 3044 326 
Q 2575 -91 1722 -91 
Q 1428 -91 1123 -41 
Q 819 9 494 109 
L 494 744 
Q 775 591 1075 516 
Q 1375 441 1709 441 
Q 2250 441 2565 725 
Q 2881 1009 2881 1497 
Q 2881 1984 2565 2268 
Q 2250 2553 1709 2553 
Q 1456 2553 1204 2497 
Q 953 2441 691 2322 
L 691 4666 
z
" transform="scale(0.015625)"/>
     </defs>
     <use xlink:href="#DejaVuSans-30"/>
     <use xlink:href="#DejaVuSans-2e" transform="translate(63.623047 0)"/>
     <use xlink:href="#DejaVuSans-37" transform="translate(95.410156 0)"/>
     <use xlink:href="#DejaVuSans-35" transform="translate(159.033203 0)"/>
    </g>
   </g>
   <g id="text_4">
    <g id="patch_77">
     <path d="M 383.629151 154.904261 
C 387.244615 154.904261 390.712486 153.467822 393.269005 150.911302 
C 395.825525 148.354783 397.261964 144.886912 397.261964 141.271448 
C 397.261964 137.655984 395.825525 134.188113 393.269005 131.631594 
C 390.712486 129.075075 387.244615 127.638636 383.629151 127.638636 
C 380.013687 127.638636 376.545816 129.075075 373.989297 131.631594 
C 371.432778 134.188113 369.996339 137.655984 369.996339 141.271448 
C 369.996339 144.886912 371.432778 148.354783 373.989297 150.911302 
C 376.545816 153.467822 380.013687 154.904261 383.629151 154.904261 
z
" style="fill: #8e5a9e; stroke: #8e5a9e; stroke-linejoin: miter"/>
    </g>
    <!-- 0.56 -->
    <g style="fill: #ffffff" transform="translate(372.496339 144.030823) scale(0.1 -0.1)">
     <use xlink:href="#DejaVuSans-30"/>
     <use xlink:href="#DejaVuSans-2e" transform="translate(63.623047 0)"/>
     <use xlink:href="#DejaVuSans-35" transform="translate(95.410156 0)"/>
     <use xlink:href="#DejaVuSans-36" transform="translate(159.033203 0)"/>
    </g>
   </g>
   <g id="text_5">
    <g id="patch_78">
     <path d="M 445.400369 154.904261 
C 449.015833 154.904261 452.483704 153.467822 455.040223 150.911302 
C 457.596742 148.354783 459.033182 144.886912 459.033182 141.271448 
C 459.033182 137.655984 457.596742 134.188113 455.040223 131.631594 
C 452.483704 129.075075 449.015833 127.638636 445.400369 127.638636 
C 441.784905 127.638636 438.317034 129.075075 435.760515 131.631594 
C 433.203996 134.188113 431.767557 137.655984 431.767557 141.271448 
C 431.767557 144.886912 433.203996 148.354783 435.760515 150.911302 
C 438.317034 153.467822 441.784905 154.904261 445.400369 154.904261 
z
" style="fill: #894f98; stroke: #894f98; stroke-linejoin: miter"/>
    </g>
    <!-- 1.00 -->
    <g style="fill: #ffffff" transform="translate(434.267557 144.030823) scale(0.1 -0.1)">
     <defs>
      <path id="DejaVuSans-31" d="M 794 531 
L 1825 531 
L 1825 4091 
L 703 3866 
L 703 4441 
L 1819 4666 
L 2450 4666 
L 2450 531 
L 3481 531 
L 3481 0 
L 794 0 
L 794 531 
z
" transform="scale(0.015625)"/>
     </defs>
     <use xlink:href="#DejaVuSans-31"/>
     <use xlink:href="#DejaVuSans-2e" transform="translate(63.623047 0)"/>
     <use xlink:href="#DejaVuSans-30" transform="translate(95.410156 0)"/>
     <use xlink:href="#DejaVuSans-30" transform="translate(159.033203 0)"/>
    </g>
   </g>
   <g id="text_6">
    <g id="patch_79">
     <path d="M 507.171587 154.904261 
C 510.787051 154.904261 514.254922 153.467822 516.811441 150.911302 
C 519.36796 148.354783 520.804399 144.886912 520.804399 141.271448 
C 520.804399 137.655984 519.36796 134.188113 516.811441 131.631594 
C 514.254922 129.075075 510.787051 127.638636 507.171587 127.638636 
C 503.556123 127.638636 500.088252 129.075075 497.531733 131.631594 
C 494.975213 134.188113 493.538774 137.655984 493.538774 141.271448 
C 493.538774 144.886912 494.975213 148.354783 497.531733 150.911302 
C 500.088252 153.467822 503.556123 154.904261 507.171587 154.904261 
z
" style="fill: #f2f6f1; stroke: #f2f6f1; stroke-linejoin: miter"/>
    </g>
    <!-- 0.95 -->
    <g transform="translate(496.038774 144.030823) scale(0.1 -0.1)">
     <defs>
      <path id="DejaVuSans-39" d="M 703 97 
L 703 672 
Q 941 559 1184 500 
Q 1428 441 1663 441 
Q 2288 441 2617 861 
Q 2947 1281 2994 2138 
Q 2813 1869 2534 1725 
Q 2256 1581 1919 1581 
Q 1219 1581 811 2004 
Q 403 2428 403 3163 
Q 403 3881 828 4315 
Q 1253 4750 1959 4750 
Q 2769 4750 3195 4129 
Q 3622 3509 3622 2328 
Q 3622 1225 3098 567 
Q 2575 -91 1691 -91 
Q 1453 -91 1209 -44 
Q 966 3 703 97 
z
M 1959 2075 
Q 2384 2075 2632 2365 
Q 2881 2656 2881 3163 
Q 2881 3666 2632 3958 
Q 2384 4250 1959 4250 
Q 1534 4250 1286 3958 
Q 1038 3666 1038 3163 
Q 1038 2656 1286 2365 
Q 1534 2075 1959 2075 
z
" transform="scale(0.015625)"/>
     </defs>
     <use xlink:href="#DejaVuSans-30"/>
     <use xlink:href="#DejaVuSans-2e" transform="translate(63.623047 0)"/>
     <use xlink:href="#DejaVuSans-39" transform="translate(95.410156 0)"/>
     <use xlink:href="#DejaVuSans-35" transform="translate(159.033203 0)"/>
    </g>
   </g>
   <g id="text_7">
    <g id="patch_80">
     <path d="M 568.942804 154.904261 
C 572.558269 154.904261 576.026139 153.467822 578.582659 150.911302 
C 581.139178 148.354783 582.575617 144.886912 582.575617 141.271448 
C 582.575617 137.655984 581.139178 134.188113 578.582659 131.631594 
C 576.026139 129.075075 572.558269 127.638636 568.942804 127.638636 
C 565.32734 127.638636 561.859469 129.075075 559.30295 131.631594 
C 556.746431 134.188113 555.309992 137.655984 555.309992 141.271448 
C 555.309992 144.886912 556.746431 148.354783 559.30295 150.911302 
C 561.859469 153.467822 565.32734 154.904261 568.942804 154.904261 
z
" style="fill: #cbeac5; stroke: #cbeac5; stroke-linejoin: miter"/>
    </g>
    <!-- 0.30 -->
    <g transform="translate(557.809992 144.030823) scale(0.1 -0.1)">
     <defs>
      <path id="DejaVuSans-33" d="M 2597 2516 
Q 3050 2419 3304 2112 
Q 3559 1806 3559 1356 
Q 3559 666 3084 287 
Q 2609 -91 1734 -91 
Q 1441 -91 1130 -33 
Q 819 25 488 141 
L 488 750 
Q 750 597 1062 519 
Q 1375 441 1716 441 
Q 2309 441 2620 675 
Q 2931 909 2931 1356 
Q 2931 1769 2642 2001 
Q 2353 2234 1838 2234 
L 1294 2234 
L 1294 2753 
L 1863 2753 
Q 2328 2753 2575 2939 
Q 2822 3125 2822 3475 
Q 2822 3834 2567 4026 
Q 2313 4219 1838 4219 
Q 1578 4219 1281 4162 
Q 984 4106 628 3988 
L 628 4550 
Q 988 4650 1302 4700 
Q 1616 4750 1894 4750 
Q 2613 4750 3031 4423 
Q 3450 4097 3450 3541 
Q 3450 3153 3228 2886 
Q 3006 2619 2597 2516 
z
" transform="scale(0.015625)"/>
     </defs>
     <use xlink:href="#DejaVuSans-30"/>
     <use xlink:href="#DejaVuSans-2e" transform="translate(63.623047 0)"/>
     <use xlink:href="#DejaVuSans-33" transform="translate(95.410156 0)"/>
     <use xlink:href="#DejaVuSans-30" transform="translate(159.033203 0)"/>
    </g>
   </g>
   <g id="text_8">
    <g id="patch_81">
     <path d="M 630.714022 153.173011 
C 633.870353 153.173011 636.897834 151.918987 639.129698 149.687124 
C 641.361561 147.455261 642.615585 144.42778 642.615585 141.271448 
C 642.615585 138.115117 641.361561 135.087636 639.129698 132.855773 
C 636.897834 130.623909 633.870353 129.369886 630.714022 129.369886 
C 627.557691 129.369886 624.53021 130.623909 622.298347 132.855773 
C 620.066483 135.087636 618.81246 138.115117 618.81246 141.271448 
C 618.81246 144.42778 620.066483 147.455261 622.298347 149.687124 
C 624.53021 151.918987 627.557691 153.173011 630.714022 153.173011 
L 630.714022 153.173011 
z
" style="fill: none"/>
    </g>
    <!-- nan -->
    <g style="fill: #ffffff" transform="translate(621.31246 144.030823) scale(0.1 -0.1)">
     <defs>
      <path id="DejaVuSans-6e" d="M 3513 2113 
L 3513 0 
L 2938 0 
L 2938 2094 
Q 2938 2591 2744 2837 
Q 2550 3084 2163 3084 
Q 1697 3084 1428 2787 
Q 1159 2491 1159 1978 
L 1159 0 
L 581 0 
L 581 3500 
L 1159 3500 
L 1159 2956 
Q 1366 3272 1645 3428 
Q 1925 3584 2291 3584 
Q 2894 3584 3203 3211 
Q 3513 2838 3513 2113 
z
" transform="scale(0.015625)"/>
      <path id="DejaVuSans-61" d="M 2194 1759 
Q 1497 1759 1228 1600 
Q 959 1441 959 1056 
Q 959 750 1161 570 
Q 1363 391 1709 391 
Q 2188 391 2477 730 
Q 2766 1069 2766 1631 
L 2766 1759 
L 2194 1759 
z
M 3341 1997 
L 3341 0 
L 2766 0 
L 2766 531 
Q 2569 213 2275 61 
Q 1981 -91 1556 -91 
Q 1019 -91 701 211 
Q 384 513 384 1019 
Q 384 1609 779 1909 
Q 1175 2209 1959 2209 
L 2766 2209 
L 2766 2266 
Q 2766 2663 2505 2880 
Q 2244 3097 1772 3097 
Q 1472 3097 1187 3025 
Q 903 2953 641 2809 
L 641 3341 
Q 956 3463 1253 3523 
Q 1550 3584 1831 3584 
Q 2591 3584 2966 3190 
Q 3341 2797 3341 1997 
z
" transform="scale(0.015625)"/>
     </defs>
     <use xlink:href="#DejaVuSans-6e"/>
     <use xlink:href="#DejaVuSans-61" transform="translate(63.378906 0)"/>
     <use xlink:href="#DejaVuSans-6e" transform="translate(124.658203 0)"/>
    </g>
   </g>
   <g id="text_9">
    <g id="patch_82">
     <path d="M 692.48524 154.904261 
C 696.100704 154.904261 699.568575 153.467822 702.125094 150.911302 
C 704.681613 148.354783 706.118052 144.886912 706.118052 141.271448 
C 706.118052 137.655984 704.681613 134.188113 702.125094 131.631594 
C 699.568575 129.075075 696.100704 127.638636 692.48524 127.638636 
C 688.869776 127.638636 685.401905 129.075075 682.845386 131.631594 
C 680.288866 134.188113 678.852427 137.655984 678.852427 141.271448 
C 678.852427 144.886912 680.288866 148.354783 682.845386 150.911302 
C 685.401905 153.467822 688.869776 154.904261 692.48524 154.904261 
z
" style="fill: #9970ab; stroke: #9970ab; stroke-linejoin: miter"/>
    </g>
    <!-- 0.67 -->
    <g style="fill: #ffffff" transform="translate(681.352427 144.030823) scale(0.1 -0.1)">
     <use xlink:href="#DejaVuSans-30"/>
     <use xlink:href="#DejaVuSans-2e" transform="translate(63.623047 0)"/>
     <use xlink:href="#DejaVuSans-36" transform="translate(95.410156 0)"/>
     <use xlink:href="#DejaVuSans-37" transform="translate(159.033203 0)"/>
    </g>
   </g>
   <g id="text_10">
    <g id="patch_83">
     <path d="M 754.256458 154.904261 
C 757.871922 154.904261 761.339793 153.467822 763.896312 150.911302 
C 766.452831 148.354783 767.88927 144.886912 767.88927 141.271448 
C 767.88927 137.655984 766.452831 134.188113 763.896312 131.631594 
C 761.339793 129.075075 757.871922 127.638636 754.256458 127.638636 
C 750.640993 127.638636 747.173123 129.075075 744.616603 131.631594 
C 742.060084 134.188113 740.623645 137.655984 740.623645 141.271448 
C 740.623645 144.886912 742.060084 148.354783 744.616603 150.911302 
C 747.173123 153.467822 750.640993 154.904261 754.256458 154.904261 
z
" style="fill: #7bc17c; stroke: #7bc17c; stroke-linejoin: miter"/>
    </g>
    <!-- 0.86 -->
    <g transform="translate(743.123645 144.030823) scale(0.1 -0.1)">
     <defs>
      <path id="DejaVuSans-38" d="M 2034 2216 
Q 1584 2216 1326 1975 
Q 1069 1734 1069 1313 
Q 1069 891 1326 650 
Q 1584 409 2034 409 
Q 2484 409 2743 651 
Q 3003 894 3003 1313 
Q 3003 1734 2745 1975 
Q 2488 2216 2034 2216 
z
M 1403 2484 
Q 997 2584 770 2862 
Q 544 3141 544 3541 
Q 544 4100 942 4425 
Q 1341 4750 2034 4750 
Q 2731 4750 3128 4425 
Q 3525 4100 3525 3541 
Q 3525 3141 3298 2862 
Q 3072 2584 2669 2484 
Q 3125 2378 3379 2068 
Q 3634 1759 3634 1313 
Q 3634 634 3220 271 
Q 2806 -91 2034 -91 
Q 1263 -91 848 271 
Q 434 634 434 1313 
Q 434 1759 690 2068 
Q 947 2378 1403 2484 
z
M 1172 3481 
Q 1172 3119 1398 2916 
Q 1625 2713 2034 2713 
Q 2441 2713 2670 2916 
Q 2900 3119 2900 3481 
Q 2900 3844 2670 4047 
Q 2441 4250 2034 4250 
Q 1625 4250 1398 4047 
Q 1172 3844 1172 3481 
z
" transform="scale(0.015625)"/>
     </defs>
     <use xlink:href="#DejaVuSans-30"/>
     <use xlink:href="#DejaVuSans-2e" transform="translate(63.623047 0)"/>
     <use xlink:href="#DejaVuSans-38" transform="translate(95.410156 0)"/>
     <use xlink:href="#DejaVuSans-36" transform="translate(159.033203 0)"/>
    </g>
   </g>
   <g id="text_11">
    <!-- X_pca_harmony -->
    <g transform="translate(145.809963 186.495899) scale(0.1 -0.1)">
     <defs>
      <path id="DejaVuSans-Bold-70" d="M 1656 506 
L 1656 -1331 
L 538 -1331 
L 538 3500 
L 1656 3500 
L 1656 2988 
Q 1888 3294 2169 3439 
Q 2450 3584 2816 3584 
Q 3463 3584 3878 3070 
Q 4294 2556 4294 1747 
Q 4294 938 3878 423 
Q 3463 -91 2816 -91 
Q 2450 -91 2169 54 
Q 1888 200 1656 506 
z
M 2400 2772 
Q 2041 2772 1848 2508 
Q 1656 2244 1656 1747 
Q 1656 1250 1848 986 
Q 2041 722 2400 722 
Q 2759 722 2948 984 
Q 3138 1247 3138 1747 
Q 3138 2247 2948 2509 
Q 2759 2772 2400 2772 
z
" transform="scale(0.015625)"/>
      <path id="DejaVuSans-Bold-61" d="M 2106 1575 
Q 1756 1575 1579 1456 
Q 1403 1338 1403 1106 
Q 1403 894 1545 773 
Q 1688 653 1941 653 
Q 2256 653 2472 879 
Q 2688 1106 2688 1447 
L 2688 1575 
L 2106 1575 
z
M 3816 1997 
L 3816 0 
L 2688 0 
L 2688 519 
Q 2463 200 2181 54 
Q 1900 -91 1497 -91 
Q 953 -91 614 226 
Q 275 544 275 1050 
Q 275 1666 698 1953 
Q 1122 2241 2028 2241 
L 2688 2241 
L 2688 2328 
Q 2688 2594 2478 2717 
Q 2269 2841 1825 2841 
Q 1466 2841 1156 2769 
Q 847 2697 581 2553 
L 581 3406 
Q 941 3494 1303 3539 
Q 1666 3584 2028 3584 
Q 2975 3584 3395 3211 
Q 3816 2838 3816 1997 
z
" transform="scale(0.015625)"/>
      <path id="DejaVuSans-Bold-68" d="M 4056 2131 
L 4056 0 
L 2931 0 
L 2931 347 
L 2931 1625 
Q 2931 2084 2911 2256 
Q 2891 2428 2841 2509 
Q 2775 2619 2662 2680 
Q 2550 2741 2406 2741 
Q 2056 2741 1856 2470 
Q 1656 2200 1656 1722 
L 1656 0 
L 538 0 
L 538 4863 
L 1656 4863 
L 1656 2988 
Q 1909 3294 2193 3439 
Q 2478 3584 2822 3584 
Q 3428 3584 3742 3212 
Q 4056 2841 4056 2131 
z
" transform="scale(0.015625)"/>
      <path id="DejaVuSans-Bold-72" d="M 3138 2547 
Q 2991 2616 2845 2648 
Q 2700 2681 2553 2681 
Q 2122 2681 1889 2404 
Q 1656 2128 1656 1613 
L 1656 0 
L 538 0 
L 538 3500 
L 1656 3500 
L 1656 2925 
Q 1872 3269 2151 3426 
Q 2431 3584 2822 3584 
Q 2878 3584 2943 3579 
Q 3009 3575 3134 3559 
L 3138 2547 
z
" transform="scale(0.015625)"/>
      <path id="DejaVuSans-Bold-6d" d="M 3781 2919 
Q 3994 3244 4286 3414 
Q 4578 3584 4928 3584 
Q 5531 3584 5847 3212 
Q 6163 2841 6163 2131 
L 6163 0 
L 5038 0 
L 5038 1825 
Q 5041 1866 5042 1909 
Q 5044 1953 5044 2034 
Q 5044 2406 4934 2573 
Q 4825 2741 4581 2741 
Q 4263 2741 4089 2478 
Q 3916 2216 3909 1719 
L 3909 0 
L 2784 0 
L 2784 1825 
Q 2784 2406 2684 2573 
Q 2584 2741 2328 2741 
Q 2006 2741 1831 2477 
Q 1656 2213 1656 1722 
L 1656 0 
L 531 0 
L 531 3500 
L 1656 3500 
L 1656 2988 
Q 1863 3284 2130 3434 
Q 2397 3584 2719 3584 
Q 3081 3584 3359 3409 
Q 3638 3234 3781 2919 
z
" transform="scale(0.015625)"/>
      <path id="DejaVuSans-Bold-6f" d="M 2203 2784 
Q 1831 2784 1636 2517 
Q 1441 2250 1441 1747 
Q 1441 1244 1636 976 
Q 1831 709 2203 709 
Q 2569 709 2762 976 
Q 2956 1244 2956 1747 
Q 2956 2250 2762 2517 
Q 2569 2784 2203 2784 
z
M 2203 3584 
Q 3106 3584 3614 3096 
Q 4122 2609 4122 1747 
Q 4122 884 3614 396 
Q 3106 -91 2203 -91 
Q 1297 -91 786 396 
Q 275 884 275 1747 
Q 275 2609 786 3096 
Q 1297 3584 2203 3584 
z
" transform="scale(0.015625)"/>
      <path id="DejaVuSans-Bold-6e" d="M 4056 2131 
L 4056 0 
L 2931 0 
L 2931 347 
L 2931 1631 
Q 2931 2084 2911 2256 
Q 2891 2428 2841 2509 
Q 2775 2619 2662 2680 
Q 2550 2741 2406 2741 
Q 2056 2741 1856 2470 
Q 1656 2200 1656 1722 
L 1656 0 
L 538 0 
L 538 3500 
L 1656 3500 
L 1656 2988 
Q 1909 3294 2193 3439 
Q 2478 3584 2822 3584 
Q 3428 3584 3742 3212 
Q 4056 2841 4056 2131 
z
" transform="scale(0.015625)"/>
      <path id="DejaVuSans-Bold-79" d="M 78 3500 
L 1197 3500 
L 2138 1125 
L 2938 3500 
L 4056 3500 
L 2584 -331 
Q 2363 -916 2067 -1148 
Q 1772 -1381 1288 -1381 
L 641 -1381 
L 641 -647 
L 991 -647 
Q 1275 -647 1404 -556 
Q 1534 -466 1606 -231 
L 1638 -134 
L 78 3500 
z
" transform="scale(0.015625)"/>
     </defs>
     <use xlink:href="#DejaVuSans-Bold-58"/>
     <use xlink:href="#DejaVuSans-Bold-5f" transform="translate(77.099609 0)"/>
     <use xlink:href="#DejaVuSans-Bold-70" transform="translate(127.099609 0)"/>
     <use xlink:href="#DejaVuSans-Bold-63" transform="translate(198.681641 0)"/>
     <use xlink:href="#DejaVuSans-Bold-61" transform="translate(257.958984 0)"/>
     <use xlink:href="#DejaVuSans-Bold-5f" transform="translate(325.439453 0)"/>
     <use xlink:href="#DejaVuSans-Bold-68" transform="translate(375.439453 0)"/>
     <use xlink:href="#DejaVuSans-Bold-61" transform="translate(446.630859 0)"/>
     <use xlink:href="#DejaVuSans-Bold-72" transform="translate(514.111328 0)"/>
     <use xlink:href="#DejaVuSans-Bold-6d" transform="translate(563.427734 0)"/>
     <use xlink:href="#DejaVuSans-Bold-6f" transform="translate(667.626953 0)"/>
     <use xlink:href="#DejaVuSans-Bold-6e" transform="translate(736.328125 0)"/>
     <use xlink:href="#DejaVuSans-Bold-79" transform="translate(807.519531 0)"/>
    </g>
   </g>
   <g id="text_12">
    <g id="patch_84">
     <path d="M 260.086716 197.508399 
C 263.70218 197.508399 267.170051 196.07196 269.72657 193.51544 
C 272.283089 190.958921 273.719528 187.49105 273.719528 183.875586 
C 273.719528 180.260122 272.283089 176.792251 269.72657 174.235732 
C 267.170051 171.679213 263.70218 170.242774 260.086716 170.242774 
C 256.471252 170.242774 253.003381 171.679213 250.446862 174.235732 
C 247.890342 176.792251 246.453903 180.260122 246.453903 183.875586 
C 246.453903 187.49105 247.890342 190.958921 250.446862 193.51544 
C 253.003381 196.07196 256.471252 197.508399 260.086716 197.508399 
z
" style="fill: #caafd4; stroke: #caafd4; stroke-linejoin: miter"/>
    </g>
    <!-- 0.70 -->
    <g transform="translate(248.953903 186.634961) scale(0.1 -0.1)">
     <use xlink:href="#DejaVuSans-30"/>
     <use xlink:href="#DejaVuSans-2e" transform="translate(63.623047 0)"/>
     <use xlink:href="#DejaVuSans-37" transform="translate(95.410156 0)"/>
     <use xlink:href="#DejaVuSans-30" transform="translate(159.033203 0)"/>
    </g>
   </g>
   <g id="text_13">
    <g id="patch_85">
     <path d="M 321.857934 197.508399 
C 325.473398 197.508399 328.941269 196.07196 331.497788 193.51544 
C 334.054307 190.958921 335.490746 187.49105 335.490746 183.875586 
C 335.490746 180.260122 334.054307 176.792251 331.497788 174.235732 
C 328.941269 171.679213 325.473398 170.242774 321.857934 170.242774 
C 318.242469 170.242774 314.774599 171.679213 312.218079 174.235732 
C 309.66156 176.792251 308.225121 180.260122 308.225121 183.875586 
C 308.225121 187.49105 309.66156 190.958921 312.218079 193.51544 
C 314.774599 196.07196 318.242469 197.508399 321.857934 197.508399 
z
" style="fill: #e8d7e9; stroke: #e8d7e9; stroke-linejoin: miter"/>
    </g>
    <!-- 0.53 -->
    <g transform="translate(310.725121 186.634961) scale(0.1 -0.1)">
     <use xlink:href="#DejaVuSans-30"/>
     <use xlink:href="#DejaVuSans-2e" transform="translate(63.623047 0)"/>
     <use xlink:href="#DejaVuSans-35" transform="translate(95.410156 0)"/>
     <use xlink:href="#DejaVuSans-33" transform="translate(159.033203 0)"/>
    </g>
   </g>
   <g id="text_14">
    <g id="patch_86">
     <path d="M 383.629151 197.508399 
C 387.244615 197.508399 390.712486 196.07196 393.269005 193.51544 
C 395.825525 190.958921 397.261964 187.49105 397.261964 183.875586 
C 397.261964 180.260122 395.825525 176.792251 393.269005 174.235732 
C 390.712486 171.679213 387.244615 170.242774 383.629151 170.242774 
C 380.013687 170.242774 376.545816 171.679213 373.989297 174.235732 
C 371.432778 176.792251 369.996339 180.260122 369.996339 183.875586 
C 369.996339 187.49105 371.432778 190.958921 373.989297 193.51544 
C 376.545816 196.07196 380.013687 197.508399 383.629151 197.508399 
z
" style="fill: #f6f7f6; stroke: #f6f7f6; stroke-linejoin: miter"/>
    </g>
    <!-- 0.64 -->
    <g transform="translate(372.496339 186.634961) scale(0.1 -0.1)">
     <defs>
      <path id="DejaVuSans-34" d="M 2419 4116 
L 825 1625 
L 2419 1625 
L 2419 4116 
z
M 2253 4666 
L 3047 4666 
L 3047 1625 
L 3713 1625 
L 3713 1100 
L 3047 1100 
L 3047 0 
L 2419 0 
L 2419 1100 
L 313 1100 
L 313 1709 
L 2253 4666 
z
" transform="scale(0.015625)"/>
     </defs>
     <use xlink:href="#DejaVuSans-30"/>
     <use xlink:href="#DejaVuSans-2e" transform="translate(63.623047 0)"/>
     <use xlink:href="#DejaVuSans-36" transform="translate(95.410156 0)"/>
     <use xlink:href="#DejaVuSans-34" transform="translate(159.033203 0)"/>
    </g>
   </g>
   <g id="text_15">
    <g id="patch_87">
     <path d="M 445.400369 197.508399 
C 449.015833 197.508399 452.483704 196.07196 455.040223 193.51544 
C 457.596742 190.958921 459.033182 187.49105 459.033182 183.875586 
C 459.033182 180.260122 457.596742 176.792251 455.040223 174.235732 
C 452.483704 171.679213 449.015833 170.242774 445.400369 170.242774 
C 441.784905 170.242774 438.317034 171.679213 435.760515 174.235732 
C 433.203996 176.792251 431.767557 180.260122 431.767557 183.875586 
C 431.767557 187.49105 433.203996 190.958921 435.760515 193.51544 
C 438.317034 196.07196 441.784905 197.508399 445.400369 197.508399 
z
" style="fill: #f6f7f6; stroke: #f6f7f6; stroke-linejoin: miter"/>
    </g>
    <!-- 1.00 -->
    <g transform="translate(434.267557 186.634961) scale(0.1 -0.1)">
     <use xlink:href="#DejaVuSans-31"/>
     <use xlink:href="#DejaVuSans-2e" transform="translate(63.623047 0)"/>
     <use xlink:href="#DejaVuSans-30" transform="translate(95.410156 0)"/>
     <use xlink:href="#DejaVuSans-30" transform="translate(159.033203 0)"/>
    </g>
   </g>
   <g id="text_16">
    <g id="patch_88">
     <path d="M 507.171587 197.508399 
C 510.787051 197.508399 514.254922 196.07196 516.811441 193.51544 
C 519.36796 190.958921 520.804399 187.49105 520.804399 183.875586 
C 520.804399 180.260122 519.36796 176.792251 516.811441 174.235732 
C 514.254922 171.679213 510.787051 170.242774 507.171587 170.242774 
C 503.556123 170.242774 500.088252 171.679213 497.531733 174.235732 
C 494.975213 176.792251 493.538774 180.260122 493.538774 183.875586 
C 493.538774 187.49105 494.975213 190.958921 497.531733 193.51544 
C 500.088252 196.07196 503.556123 197.508399 507.171587 197.508399 
z
" style="fill: #f6f7f6; stroke: #f6f7f6; stroke-linejoin: miter"/>
    </g>
    <!-- 0.95 -->
    <g transform="translate(496.038774 186.634961) scale(0.1 -0.1)">
     <use xlink:href="#DejaVuSans-30"/>
     <use xlink:href="#DejaVuSans-2e" transform="translate(63.623047 0)"/>
     <use xlink:href="#DejaVuSans-39" transform="translate(95.410156 0)"/>
     <use xlink:href="#DejaVuSans-35" transform="translate(159.033203 0)"/>
    </g>
   </g>
   <g id="text_17">
    <g id="patch_89">
     <path d="M 568.942804 197.508399 
C 572.558269 197.508399 576.026139 196.07196 578.582659 193.51544 
C 581.139178 190.958921 582.575617 187.49105 582.575617 183.875586 
C 582.575617 180.260122 581.139178 176.792251 578.582659 174.235732 
C 576.026139 171.679213 572.558269 170.242774 568.942804 170.242774 
C 565.32734 170.242774 561.859469 171.679213 559.30295 174.235732 
C 556.746431 176.792251 555.309992 180.260122 555.309992 183.875586 
C 555.309992 187.49105 556.746431 190.958921 559.30295 193.51544 
C 561.859469 196.07196 565.32734 197.508399 568.942804 197.508399 
z
" style="fill: #f6f7f6; stroke: #f6f7f6; stroke-linejoin: miter"/>
    </g>
    <!-- 0.27 -->
    <g transform="translate(557.809992 186.634961) scale(0.1 -0.1)">
     <defs>
      <path id="DejaVuSans-32" d="M 1228 531 
L 3431 531 
L 3431 0 
L 469 0 
L 469 531 
Q 828 903 1448 1529 
Q 2069 2156 2228 2338 
Q 2531 2678 2651 2914 
Q 2772 3150 2772 3378 
Q 2772 3750 2511 3984 
Q 2250 4219 1831 4219 
Q 1534 4219 1204 4116 
Q 875 4013 500 3803 
L 500 4441 
Q 881 4594 1212 4672 
Q 1544 4750 1819 4750 
Q 2544 4750 2975 4387 
Q 3406 4025 3406 3419 
Q 3406 3131 3298 2873 
Q 3191 2616 2906 2266 
Q 2828 2175 2409 1742 
Q 1991 1309 1228 531 
z
" transform="scale(0.015625)"/>
     </defs>
     <use xlink:href="#DejaVuSans-30"/>
     <use xlink:href="#DejaVuSans-2e" transform="translate(63.623047 0)"/>
     <use xlink:href="#DejaVuSans-32" transform="translate(95.410156 0)"/>
     <use xlink:href="#DejaVuSans-37" transform="translate(159.033203 0)"/>
    </g>
   </g>
   <g id="text_18">
    <g id="patch_90">
     <path d="M 630.714022 195.777149 
C 633.870353 195.777149 636.897834 194.523125 639.129698 192.291262 
C 641.361561 190.059399 642.615585 187.031917 642.615585 183.875586 
C 642.615585 180.719255 641.361561 177.691774 639.129698 175.459911 
C 636.897834 173.228047 633.870353 171.974024 630.714022 171.974024 
C 627.557691 171.974024 624.53021 173.228047 622.298347 175.459911 
C 620.066483 177.691774 618.81246 180.719255 618.81246 183.875586 
C 618.81246 187.031917 620.066483 190.059399 622.298347 192.291262 
C 624.53021 194.523125 627.557691 195.777149 630.714022 195.777149 
L 630.714022 195.777149 
z
" style="fill: none"/>
    </g>
    <!-- nan -->
    <g style="fill: #ffffff" transform="translate(621.31246 186.634961) scale(0.1 -0.1)">
     <use xlink:href="#DejaVuSans-6e"/>
     <use xlink:href="#DejaVuSans-61" transform="translate(63.378906 0)"/>
     <use xlink:href="#DejaVuSans-6e" transform="translate(124.658203 0)"/>
    </g>
   </g>
   <g id="text_19">
    <g id="patch_91">
     <path d="M 692.48524 197.508399 
C 696.100704 197.508399 699.568575 196.07196 702.125094 193.51544 
C 704.681613 190.958921 706.118052 187.49105 706.118052 183.875586 
C 706.118052 180.260122 704.681613 176.792251 702.125094 174.235732 
C 699.568575 171.679213 696.100704 170.242774 692.48524 170.242774 
C 688.869776 170.242774 685.401905 171.679213 682.845386 174.235732 
C 680.288866 176.792251 678.852427 180.260122 678.852427 183.875586 
C 678.852427 187.49105 680.288866 190.958921 682.845386 193.51544 
C 685.401905 196.07196 688.869776 197.508399 692.48524 197.508399 
z
" style="fill: #dff1da; stroke: #dff1da; stroke-linejoin: miter"/>
    </g>
    <!-- 0.79 -->
    <g transform="translate(681.352427 186.634961) scale(0.1 -0.1)">
     <use xlink:href="#DejaVuSans-30"/>
     <use xlink:href="#DejaVuSans-2e" transform="translate(63.623047 0)"/>
     <use xlink:href="#DejaVuSans-37" transform="translate(95.410156 0)"/>
     <use xlink:href="#DejaVuSans-39" transform="translate(159.033203 0)"/>
    </g>
   </g>
   <g id="text_20">
    <g id="patch_92">
     <path d="M 754.256458 197.508399 
C 757.871922 197.508399 761.339793 196.07196 763.896312 193.51544 
C 766.452831 190.958921 767.88927 187.49105 767.88927 183.875586 
C 767.88927 180.260122 766.452831 176.792251 763.896312 174.235732 
C 761.339793 171.679213 757.871922 170.242774 754.256458 170.242774 
C 750.640993 170.242774 747.173123 171.679213 744.616603 174.235732 
C 742.060084 176.792251 740.623645 180.260122 740.623645 183.875586 
C 740.623645 187.49105 742.060084 190.958921 744.616603 193.51544 
C 747.173123 196.07196 750.640993 197.508399 754.256458 197.508399 
z
" style="fill: #f6f7f6; stroke: #f6f7f6; stroke-linejoin: miter"/>
    </g>
    <!-- 0.31 -->
    <g transform="translate(743.123645 186.634961) scale(0.1 -0.1)">
     <use xlink:href="#DejaVuSans-30"/>
     <use xlink:href="#DejaVuSans-2e" transform="translate(63.623047 0)"/>
     <use xlink:href="#DejaVuSans-33" transform="translate(95.410156 0)"/>
     <use xlink:href="#DejaVuSans-31" transform="translate(159.033203 0)"/>
    </g>
   </g>
   <g id="text_21">
    <!-- Unintegrated -->
    <g transform="translate(145.809963 229.200037) scale(0.1 -0.1)">
     <defs>
      <path id="DejaVuSans-Bold-55" d="M 588 4666 
L 1791 4666 
L 1791 1869 
Q 1791 1291 1980 1042 
Q 2169 794 2597 794 
Q 3028 794 3217 1042 
Q 3406 1291 3406 1869 
L 3406 4666 
L 4609 4666 
L 4609 1869 
Q 4609 878 4112 393 
Q 3616 -91 2597 -91 
Q 1581 -91 1084 393 
Q 588 878 588 1869 
L 588 4666 
z
" transform="scale(0.015625)"/>
      <path id="DejaVuSans-Bold-69" d="M 538 3500 
L 1656 3500 
L 1656 0 
L 538 0 
L 538 3500 
z
M 538 4863 
L 1656 4863 
L 1656 3950 
L 538 3950 
L 538 4863 
z
" transform="scale(0.015625)"/>
      <path id="DejaVuSans-Bold-74" d="M 1759 4494 
L 1759 3500 
L 2913 3500 
L 2913 2700 
L 1759 2700 
L 1759 1216 
Q 1759 972 1856 886 
Q 1953 800 2241 800 
L 2816 800 
L 2816 0 
L 1856 0 
Q 1194 0 917 276 
Q 641 553 641 1216 
L 641 2700 
L 84 2700 
L 84 3500 
L 641 3500 
L 641 4494 
L 1759 4494 
z
" transform="scale(0.015625)"/>
      <path id="DejaVuSans-Bold-65" d="M 4031 1759 
L 4031 1441 
L 1416 1441 
Q 1456 1047 1700 850 
Q 1944 653 2381 653 
Q 2734 653 3104 758 
Q 3475 863 3866 1075 
L 3866 213 
Q 3469 63 3072 -14 
Q 2675 -91 2278 -91 
Q 1328 -91 801 392 
Q 275 875 275 1747 
Q 275 2603 792 3093 
Q 1309 3584 2216 3584 
Q 3041 3584 3536 3087 
Q 4031 2591 4031 1759 
z
M 2881 2131 
Q 2881 2450 2695 2645 
Q 2509 2841 2209 2841 
Q 1884 2841 1681 2658 
Q 1478 2475 1428 2131 
L 2881 2131 
z
" transform="scale(0.015625)"/>
      <path id="DejaVuSans-Bold-67" d="M 2919 594 
Q 2688 288 2409 144 
Q 2131 0 1766 0 
Q 1125 0 706 504 
Q 288 1009 288 1791 
Q 288 2575 706 3076 
Q 1125 3578 1766 3578 
Q 2131 3578 2409 3434 
Q 2688 3291 2919 2981 
L 2919 3500 
L 4044 3500 
L 4044 353 
Q 4044 -491 3511 -936 
Q 2978 -1381 1966 -1381 
Q 1638 -1381 1331 -1331 
Q 1025 -1281 716 -1178 
L 716 -306 
Q 1009 -475 1290 -558 
Q 1572 -641 1856 -641 
Q 2406 -641 2662 -400 
Q 2919 -159 2919 353 
L 2919 594 
z
M 2181 2772 
Q 1834 2772 1640 2515 
Q 1447 2259 1447 1791 
Q 1447 1309 1634 1061 
Q 1822 813 2181 813 
Q 2531 813 2725 1069 
Q 2919 1325 2919 1791 
Q 2919 2259 2725 2515 
Q 2531 2772 2181 2772 
z
" transform="scale(0.015625)"/>
      <path id="DejaVuSans-Bold-64" d="M 2919 2988 
L 2919 4863 
L 4044 4863 
L 4044 0 
L 2919 0 
L 2919 506 
Q 2688 197 2409 53 
Q 2131 -91 1766 -91 
Q 1119 -91 703 423 
Q 288 938 288 1747 
Q 288 2556 703 3070 
Q 1119 3584 1766 3584 
Q 2128 3584 2408 3439 
Q 2688 3294 2919 2988 
z
M 2181 722 
Q 2541 722 2730 984 
Q 2919 1247 2919 1747 
Q 2919 2247 2730 2509 
Q 2541 2772 2181 2772 
Q 1825 2772 1636 2509 
Q 1447 2247 1447 1747 
Q 1447 1247 1636 984 
Q 1825 722 2181 722 
z
" transform="scale(0.015625)"/>
     </defs>
     <use xlink:href="#DejaVuSans-Bold-55"/>
     <use xlink:href="#DejaVuSans-Bold-6e" transform="translate(81.201172 0)"/>
     <use xlink:href="#DejaVuSans-Bold-69" transform="translate(152.392578 0)"/>
     <use xlink:href="#DejaVuSans-Bold-6e" transform="translate(186.669922 0)"/>
     <use xlink:href="#DejaVuSans-Bold-74" transform="translate(257.861328 0)"/>
     <use xlink:href="#DejaVuSans-Bold-65" transform="translate(305.664062 0)"/>
     <use xlink:href="#DejaVuSans-Bold-67" transform="translate(373.486328 0)"/>
     <use xlink:href="#DejaVuSans-Bold-72" transform="translate(445.068359 0)"/>
     <use xlink:href="#DejaVuSans-Bold-61" transform="translate(494.384766 0)"/>
     <use xlink:href="#DejaVuSans-Bold-74" transform="translate(561.865234 0)"/>
     <use xlink:href="#DejaVuSans-Bold-65" transform="translate(609.667969 0)"/>
     <use xlink:href="#DejaVuSans-Bold-64" transform="translate(677.490234 0)"/>
    </g>
   </g>
   <g id="text_22">
    <g id="patch_93">
     <path d="M 260.086716 240.112537 
C 263.70218 240.112537 267.170051 238.676098 269.72657 236.119578 
C 272.283089 233.563059 273.719528 230.095188 273.719528 226.479724 
C 273.719528 222.86426 272.283089 219.396389 269.72657 216.83987 
C 267.170051 214.283351 263.70218 212.846912 260.086716 212.846912 
C 256.471252 212.846912 253.003381 214.283351 250.446862 216.83987 
C 247.890342 219.396389 246.453903 222.86426 246.453903 226.479724 
C 246.453903 230.095188 247.890342 233.563059 250.446862 236.119578 
C 253.003381 238.676098 256.471252 240.112537 260.086716 240.112537 
z
" style="fill: #f6f7f6; stroke: #f6f7f6; stroke-linejoin: miter"/>
    </g>
    <!-- 0.73 -->
    <g transform="translate(248.953903 229.239099) scale(0.1 -0.1)">
     <use xlink:href="#DejaVuSans-30"/>
     <use xlink:href="#DejaVuSans-2e" transform="translate(63.623047 0)"/>
     <use xlink:href="#DejaVuSans-37" transform="translate(95.410156 0)"/>
     <use xlink:href="#DejaVuSans-33" transform="translate(159.033203 0)"/>
    </g>
   </g>
   <g id="text_23">
    <g id="patch_94">
     <path d="M 321.857934 240.112537 
C 325.473398 240.112537 328.941269 238.676098 331.497788 236.119578 
C 334.054307 233.563059 335.490746 230.095188 335.490746 226.479724 
C 335.490746 222.86426 334.054307 219.396389 331.497788 216.83987 
C 328.941269 214.283351 325.473398 212.846912 321.857934 212.846912 
C 318.242469 212.846912 314.774599 214.283351 312.218079 216.83987 
C 309.66156 219.396389 308.225121 222.86426 308.225121 226.479724 
C 308.225121 230.095188 309.66156 233.563059 312.218079 236.119578 
C 314.774599 238.676098 318.242469 240.112537 321.857934 240.112537 
z
" style="fill: #f7f6f7; stroke: #f7f6f7; stroke-linejoin: miter"/>
    </g>
    <!-- 0.58 -->
    <g transform="translate(310.725121 229.239099) scale(0.1 -0.1)">
     <use xlink:href="#DejaVuSans-30"/>
     <use xlink:href="#DejaVuSans-2e" transform="translate(63.623047 0)"/>
     <use xlink:href="#DejaVuSans-35" transform="translate(95.410156 0)"/>
     <use xlink:href="#DejaVuSans-38" transform="translate(159.033203 0)"/>
    </g>
   </g>
   <g id="text_24">
    <g id="patch_95">
     <path d="M 383.629151 240.112537 
C 387.244615 240.112537 390.712486 238.676098 393.269005 236.119578 
C 395.825525 233.563059 397.261964 230.095188 397.261964 226.479724 
C 397.261964 222.86426 395.825525 219.396389 393.269005 216.83987 
C 390.712486 214.283351 387.244615 212.846912 383.629151 212.846912 
C 380.013687 212.846912 376.545816 214.283351 373.989297 216.83987 
C 371.432778 219.396389 369.996339 222.86426 369.996339 226.479724 
C 369.996339 230.095188 371.432778 233.563059 373.989297 236.119578 
C 376.545816 238.676098 380.013687 240.112537 383.629151 240.112537 
z
" style="fill: #eef5ec; stroke: #eef5ec; stroke-linejoin: miter"/>
    </g>
    <!-- 0.65 -->
    <g transform="translate(372.496339 229.239099) scale(0.1 -0.1)">
     <use xlink:href="#DejaVuSans-30"/>
     <use xlink:href="#DejaVuSans-2e" transform="translate(63.623047 0)"/>
     <use xlink:href="#DejaVuSans-36" transform="translate(95.410156 0)"/>
     <use xlink:href="#DejaVuSans-35" transform="translate(159.033203 0)"/>
    </g>
   </g>
   <g id="text_25">
    <g id="patch_96">
     <path d="M 445.400369 240.112537 
C 449.015833 240.112537 452.483704 238.676098 455.040223 236.119578 
C 457.596742 233.563059 459.033182 230.095188 459.033182 226.479724 
C 459.033182 222.86426 457.596742 219.396389 455.040223 216.83987 
C 452.483704 214.283351 449.015833 212.846912 445.400369 212.846912 
C 441.784905 212.846912 438.317034 214.283351 435.760515 216.83987 
C 433.203996 219.396389 431.767557 222.86426 431.767557 226.479724 
C 431.767557 230.095188 433.203996 233.563059 435.760515 236.119578 
C 438.317034 238.676098 441.784905 240.112537 445.400369 240.112537 
z
" style="fill: #f6f7f6; stroke: #f6f7f6; stroke-linejoin: miter"/>
    </g>
    <!-- 1.00 -->
    <g transform="translate(434.267557 229.239099) scale(0.1 -0.1)">
     <use xlink:href="#DejaVuSans-31"/>
     <use xlink:href="#DejaVuSans-2e" transform="translate(63.623047 0)"/>
     <use xlink:href="#DejaVuSans-30" transform="translate(95.410156 0)"/>
     <use xlink:href="#DejaVuSans-30" transform="translate(159.033203 0)"/>
    </g>
   </g>
   <g id="text_26">
    <g id="patch_97">
     <path d="M 507.171587 240.112537 
C 510.787051 240.112537 514.254922 238.676098 516.811441 236.119578 
C 519.36796 233.563059 520.804399 230.095188 520.804399 226.479724 
C 520.804399 222.86426 519.36796 219.396389 516.811441 216.83987 
C 514.254922 214.283351 510.787051 212.846912 507.171587 212.846912 
C 503.556123 212.846912 500.088252 214.283351 497.531733 216.83987 
C 494.975213 219.396389 493.538774 222.86426 493.538774 226.479724 
C 493.538774 230.095188 494.975213 233.563059 497.531733 236.119578 
C 500.088252 238.676098 503.556123 240.112537 507.171587 240.112537 
z
" style="fill: #8b559b; stroke: #8b559b; stroke-linejoin: miter"/>
    </g>
    <!-- 0.93 -->
    <g style="fill: #ffffff" transform="translate(496.038774 229.239099) scale(0.1 -0.1)">
     <use xlink:href="#DejaVuSans-30"/>
     <use xlink:href="#DejaVuSans-2e" transform="translate(63.623047 0)"/>
     <use xlink:href="#DejaVuSans-39" transform="translate(95.410156 0)"/>
     <use xlink:href="#DejaVuSans-33" transform="translate(159.033203 0)"/>
    </g>
   </g>
   <g id="text_27">
    <g id="patch_98">
     <path d="M 568.942804 240.112537 
C 572.558269 240.112537 576.026139 238.676098 578.582659 236.119578 
C 581.139178 233.563059 582.575617 230.095188 582.575617 226.479724 
C 582.575617 222.86426 581.139178 219.396389 578.582659 216.83987 
C 576.026139 214.283351 572.558269 212.846912 568.942804 212.846912 
C 565.32734 212.846912 561.859469 214.283351 559.30295 216.83987 
C 556.746431 219.396389 555.309992 222.86426 555.309992 226.479724 
C 555.309992 230.095188 556.746431 233.563059 559.30295 236.119578 
C 561.859469 238.676098 565.32734 240.112537 568.942804 240.112537 
z
" style="fill: #a783b8; stroke: #a783b8; stroke-linejoin: miter"/>
    </g>
    <!-- 0.22 -->
    <g style="fill: #ffffff" transform="translate(557.809992 229.239099) scale(0.1 -0.1)">
     <use xlink:href="#DejaVuSans-30"/>
     <use xlink:href="#DejaVuSans-2e" transform="translate(63.623047 0)"/>
     <use xlink:href="#DejaVuSans-32" transform="translate(95.410156 0)"/>
     <use xlink:href="#DejaVuSans-32" transform="translate(159.033203 0)"/>
    </g>
   </g>
   <g id="text_28">
    <g id="patch_99">
     <path d="M 630.714022 238.381287 
C 633.870353 238.381287 636.897834 237.127263 639.129698 234.8954 
C 641.361561 232.663536 642.615585 229.636055 642.615585 226.479724 
C 642.615585 223.323393 641.361561 220.295912 639.129698 218.064049 
C 636.897834 215.832185 633.870353 214.578162 630.714022 214.578162 
C 627.557691 214.578162 624.53021 215.832185 622.298347 218.064049 
C 620.066483 220.295912 618.81246 223.323393 618.81246 226.479724 
C 618.81246 229.636055 620.066483 232.663536 622.298347 234.8954 
C 624.53021 237.127263 627.557691 238.381287 630.714022 238.381287 
L 630.714022 238.381287 
z
" style="fill: none"/>
    </g>
    <!-- nan -->
    <g style="fill: #ffffff" transform="translate(621.31246 229.239099) scale(0.1 -0.1)">
     <use xlink:href="#DejaVuSans-6e"/>
     <use xlink:href="#DejaVuSans-61" transform="translate(63.378906 0)"/>
     <use xlink:href="#DejaVuSans-6e" transform="translate(124.658203 0)"/>
    </g>
   </g>
   <g id="text_29">
    <g id="patch_100">
     <path d="M 692.48524 240.112537 
C 696.100704 240.112537 699.568575 238.676098 702.125094 236.119578 
C 704.681613 233.563059 706.118052 230.095188 706.118052 226.479724 
C 706.118052 222.86426 704.681613 219.396389 702.125094 216.83987 
C 699.568575 214.283351 696.100704 212.846912 692.48524 212.846912 
C 688.869776 212.846912 685.401905 214.283351 682.845386 216.83987 
C 680.288866 219.396389 678.852427 222.86426 678.852427 226.479724 
C 678.852427 230.095188 680.288866 233.563059 682.845386 236.119578 
C 685.401905 238.676098 688.869776 240.112537 692.48524 240.112537 
z
" style="fill: #f6f7f6; stroke: #f6f7f6; stroke-linejoin: miter"/>
    </g>
    <!-- 0.77 -->
    <g transform="translate(681.352427 229.239099) scale(0.1 -0.1)">
     <use xlink:href="#DejaVuSans-30"/>
     <use xlink:href="#DejaVuSans-2e" transform="translate(63.623047 0)"/>
     <use xlink:href="#DejaVuSans-37" transform="translate(95.410156 0)"/>
     <use xlink:href="#DejaVuSans-37" transform="translate(159.033203 0)"/>
    </g>
   </g>
   <g id="text_30">
    <g id="patch_101">
     <path d="M 754.256458 240.112537 
C 757.871922 240.112537 761.339793 238.676098 763.896312 236.119578 
C 766.452831 233.563059 767.88927 230.095188 767.88927 226.479724 
C 767.88927 222.86426 766.452831 219.396389 763.896312 216.83987 
C 761.339793 214.283351 757.871922 212.846912 754.256458 212.846912 
C 750.640993 212.846912 747.173123 214.283351 744.616603 216.83987 
C 742.060084 219.396389 740.623645 222.86426 740.623645 226.479724 
C 740.623645 230.095188 742.060084 233.563059 744.616603 236.119578 
C 747.173123 238.676098 750.640993 240.112537 754.256458 240.112537 
z
" style="fill: #d8c2de; stroke: #d8c2de; stroke-linejoin: miter"/>
    </g>
    <!-- 0.00 -->
    <g transform="translate(743.123645 229.239099) scale(0.1 -0.1)">
     <use xlink:href="#DejaVuSans-30"/>
     <use xlink:href="#DejaVuSans-2e" transform="translate(63.623047 0)"/>
     <use xlink:href="#DejaVuSans-30" transform="translate(95.410156 0)"/>
     <use xlink:href="#DejaVuSans-30" transform="translate(159.033203 0)"/>
    </g>
   </g>
   <g id="text_31">
    <!-- Method -->
    <g transform="translate(145.809963 101.426685) scale(0.1 -0.1)">
     <defs>
      <path id="DejaVuSans-Bold-4d" d="M 588 4666 
L 2119 4666 
L 3181 2169 
L 4250 4666 
L 5778 4666 
L 5778 0 
L 4641 0 
L 4641 3413 
L 3566 897 
L 2803 897 
L 1728 3413 
L 1728 0 
L 588 0 
L 588 4666 
z
" transform="scale(0.015625)"/>
     </defs>
     <use xlink:href="#DejaVuSans-Bold-4d"/>
     <use xlink:href="#DejaVuSans-Bold-65" transform="translate(99.511719 0)"/>
     <use xlink:href="#DejaVuSans-Bold-74" transform="translate(167.333984 0)"/>
     <use xlink:href="#DejaVuSans-Bold-68" transform="translate(215.136719 0)"/>
     <use xlink:href="#DejaVuSans-Bold-6f" transform="translate(286.328125 0)"/>
     <use xlink:href="#DejaVuSans-Bold-64" transform="translate(355.029297 0)"/>
    </g>
   </g>
   <g id="text_32">
    <!-- KMeans -->
    <g transform="translate(240.579685 95.827779) scale(0.1 -0.1)">
     <defs>
      <path id="DejaVuSans-4b" d="M 628 4666 
L 1259 4666 
L 1259 2694 
L 3353 4666 
L 4166 4666 
L 1850 2491 
L 4331 0 
L 3500 0 
L 1259 2247 
L 1259 0 
L 628 0 
L 628 4666 
z
" transform="scale(0.015625)"/>
      <path id="DejaVuSans-4d" d="M 628 4666 
L 1569 4666 
L 2759 1491 
L 3956 4666 
L 4897 4666 
L 4897 0 
L 4281 0 
L 4281 4097 
L 3078 897 
L 2444 897 
L 1241 4097 
L 1241 0 
L 628 0 
L 628 4666 
z
" transform="scale(0.015625)"/>
      <path id="DejaVuSans-65" d="M 3597 1894 
L 3597 1613 
L 953 1613 
Q 991 1019 1311 708 
Q 1631 397 2203 397 
Q 2534 397 2845 478 
Q 3156 559 3463 722 
L 3463 178 
Q 3153 47 2828 -22 
Q 2503 -91 2169 -91 
Q 1331 -91 842 396 
Q 353 884 353 1716 
Q 353 2575 817 3079 
Q 1281 3584 2069 3584 
Q 2775 3584 3186 3129 
Q 3597 2675 3597 1894 
z
M 3022 2063 
Q 3016 2534 2758 2815 
Q 2500 3097 2075 3097 
Q 1594 3097 1305 2825 
Q 1016 2553 972 2059 
L 3022 2063 
z
" transform="scale(0.015625)"/>
      <path id="DejaVuSans-73" d="M 2834 3397 
L 2834 2853 
Q 2591 2978 2328 3040 
Q 2066 3103 1784 3103 
Q 1356 3103 1142 2972 
Q 928 2841 928 2578 
Q 928 2378 1081 2264 
Q 1234 2150 1697 2047 
L 1894 2003 
Q 2506 1872 2764 1633 
Q 3022 1394 3022 966 
Q 3022 478 2636 193 
Q 2250 -91 1575 -91 
Q 1294 -91 989 -36 
Q 684 19 347 128 
L 347 722 
Q 666 556 975 473 
Q 1284 391 1588 391 
Q 1994 391 2212 530 
Q 2431 669 2431 922 
Q 2431 1156 2273 1281 
Q 2116 1406 1581 1522 
L 1381 1569 
Q 847 1681 609 1914 
Q 372 2147 372 2553 
Q 372 3047 722 3315 
Q 1072 3584 1716 3584 
Q 2034 3584 2315 3537 
Q 2597 3491 2834 3397 
z
" transform="scale(0.015625)"/>
     </defs>
     <use xlink:href="#DejaVuSans-4b"/>
     <use xlink:href="#DejaVuSans-4d" transform="translate(65.576172 0)"/>
     <use xlink:href="#DejaVuSans-65" transform="translate(151.855469 0)"/>
     <use xlink:href="#DejaVuSans-61" transform="translate(213.378906 0)"/>
     <use xlink:href="#DejaVuSans-6e" transform="translate(274.658203 0)"/>
     <use xlink:href="#DejaVuSans-73" transform="translate(338.037109 0)"/>
    </g>
    <!-- NMI -->
    <g transform="translate(250.557028 107.025592) scale(0.1 -0.1)">
     <defs>
      <path id="DejaVuSans-4e" d="M 628 4666 
L 1478 4666 
L 3547 763 
L 3547 4666 
L 4159 4666 
L 4159 0 
L 3309 0 
L 1241 3903 
L 1241 0 
L 628 0 
L 628 4666 
z
" transform="scale(0.015625)"/>
      <path id="DejaVuSans-49" d="M 628 4666 
L 1259 4666 
L 1259 0 
L 628 0 
L 628 4666 
z
" transform="scale(0.015625)"/>
     </defs>
     <use xlink:href="#DejaVuSans-4e"/>
     <use xlink:href="#DejaVuSans-4d" transform="translate(74.804688 0)"/>
     <use xlink:href="#DejaVuSans-49" transform="translate(161.083984 0)"/>
    </g>
   </g>
   <g id="text_33">
    <!-- KMeans -->
    <g transform="translate(302.350902 95.827779) scale(0.1 -0.1)">
     <use xlink:href="#DejaVuSans-4b"/>
     <use xlink:href="#DejaVuSans-4d" transform="translate(65.576172 0)"/>
     <use xlink:href="#DejaVuSans-65" transform="translate(151.855469 0)"/>
     <use xlink:href="#DejaVuSans-61" transform="translate(213.378906 0)"/>
     <use xlink:href="#DejaVuSans-6e" transform="translate(274.658203 0)"/>
     <use xlink:href="#DejaVuSans-73" transform="translate(338.037109 0)"/>
    </g>
    <!-- ARI -->
    <g transform="translate(313.488402 107.025592) scale(0.1 -0.1)">
     <defs>
      <path id="DejaVuSans-41" d="M 2188 4044 
L 1331 1722 
L 3047 1722 
L 2188 4044 
z
M 1831 4666 
L 2547 4666 
L 4325 0 
L 3669 0 
L 3244 1197 
L 1141 1197 
L 716 0 
L 50 0 
L 1831 4666 
z
" transform="scale(0.015625)"/>
      <path id="DejaVuSans-52" d="M 2841 2188 
Q 3044 2119 3236 1894 
Q 3428 1669 3622 1275 
L 4263 0 
L 3584 0 
L 2988 1197 
Q 2756 1666 2539 1819 
Q 2322 1972 1947 1972 
L 1259 1972 
L 1259 0 
L 628 0 
L 628 4666 
L 2053 4666 
Q 2853 4666 3247 4331 
Q 3641 3997 3641 3322 
Q 3641 2881 3436 2590 
Q 3231 2300 2841 2188 
z
M 1259 4147 
L 1259 2491 
L 2053 2491 
Q 2509 2491 2742 2702 
Q 2975 2913 2975 3322 
Q 2975 3731 2742 3939 
Q 2509 4147 2053 4147 
L 1259 4147 
z
" transform="scale(0.015625)"/>
     </defs>
     <use xlink:href="#DejaVuSans-41"/>
     <use xlink:href="#DejaVuSans-52" transform="translate(68.408203 0)"/>
     <use xlink:href="#DejaVuSans-49" transform="translate(137.890625 0)"/>
    </g>
   </g>
   <g id="text_34">
    <!-- Silhouette -->
    <g transform="translate(358.206495 95.827779) scale(0.1 -0.1)">
     <defs>
      <path id="DejaVuSans-53" d="M 3425 4513 
L 3425 3897 
Q 3066 4069 2747 4153 
Q 2428 4238 2131 4238 
Q 1616 4238 1336 4038 
Q 1056 3838 1056 3469 
Q 1056 3159 1242 3001 
Q 1428 2844 1947 2747 
L 2328 2669 
Q 3034 2534 3370 2195 
Q 3706 1856 3706 1288 
Q 3706 609 3251 259 
Q 2797 -91 1919 -91 
Q 1588 -91 1214 -16 
Q 841 59 441 206 
L 441 856 
Q 825 641 1194 531 
Q 1563 422 1919 422 
Q 2459 422 2753 634 
Q 3047 847 3047 1241 
Q 3047 1584 2836 1778 
Q 2625 1972 2144 2069 
L 1759 2144 
Q 1053 2284 737 2584 
Q 422 2884 422 3419 
Q 422 4038 858 4394 
Q 1294 4750 2059 4750 
Q 2388 4750 2728 4690 
Q 3069 4631 3425 4513 
z
" transform="scale(0.015625)"/>
      <path id="DejaVuSans-69" d="M 603 3500 
L 1178 3500 
L 1178 0 
L 603 0 
L 603 3500 
z
M 603 4863 
L 1178 4863 
L 1178 4134 
L 603 4134 
L 603 4863 
z
" transform="scale(0.015625)"/>
      <path id="DejaVuSans-6c" d="M 603 4863 
L 1178 4863 
L 1178 0 
L 603 0 
L 603 4863 
z
" transform="scale(0.015625)"/>
      <path id="DejaVuSans-68" d="M 3513 2113 
L 3513 0 
L 2938 0 
L 2938 2094 
Q 2938 2591 2744 2837 
Q 2550 3084 2163 3084 
Q 1697 3084 1428 2787 
Q 1159 2491 1159 1978 
L 1159 0 
L 581 0 
L 581 4863 
L 1159 4863 
L 1159 2956 
Q 1366 3272 1645 3428 
Q 1925 3584 2291 3584 
Q 2894 3584 3203 3211 
Q 3513 2838 3513 2113 
z
" transform="scale(0.015625)"/>
      <path id="DejaVuSans-6f" d="M 1959 3097 
Q 1497 3097 1228 2736 
Q 959 2375 959 1747 
Q 959 1119 1226 758 
Q 1494 397 1959 397 
Q 2419 397 2687 759 
Q 2956 1122 2956 1747 
Q 2956 2369 2687 2733 
Q 2419 3097 1959 3097 
z
M 1959 3584 
Q 2709 3584 3137 3096 
Q 3566 2609 3566 1747 
Q 3566 888 3137 398 
Q 2709 -91 1959 -91 
Q 1206 -91 779 398 
Q 353 888 353 1747 
Q 353 2609 779 3096 
Q 1206 3584 1959 3584 
z
" transform="scale(0.015625)"/>
      <path id="DejaVuSans-75" d="M 544 1381 
L 544 3500 
L 1119 3500 
L 1119 1403 
Q 1119 906 1312 657 
Q 1506 409 1894 409 
Q 2359 409 2629 706 
Q 2900 1003 2900 1516 
L 2900 3500 
L 3475 3500 
L 3475 0 
L 2900 0 
L 2900 538 
Q 2691 219 2414 64 
Q 2138 -91 1772 -91 
Q 1169 -91 856 284 
Q 544 659 544 1381 
z
M 1991 3584 
L 1991 3584 
z
" transform="scale(0.015625)"/>
      <path id="DejaVuSans-74" d="M 1172 4494 
L 1172 3500 
L 2356 3500 
L 2356 3053 
L 1172 3053 
L 1172 1153 
Q 1172 725 1289 603 
Q 1406 481 1766 481 
L 2356 481 
L 2356 0 
L 1766 0 
Q 1100 0 847 248 
Q 594 497 594 1153 
L 594 3053 
L 172 3053 
L 172 3500 
L 594 3500 
L 594 4494 
L 1172 4494 
z
" transform="scale(0.015625)"/>
     </defs>
     <use xlink:href="#DejaVuSans-53"/>
     <use xlink:href="#DejaVuSans-69" transform="translate(63.476562 0)"/>
     <use xlink:href="#DejaVuSans-6c" transform="translate(91.259766 0)"/>
     <use xlink:href="#DejaVuSans-68" transform="translate(119.042969 0)"/>
     <use xlink:href="#DejaVuSans-6f" transform="translate(182.421875 0)"/>
     <use xlink:href="#DejaVuSans-75" transform="translate(243.603516 0)"/>
     <use xlink:href="#DejaVuSans-65" transform="translate(306.982422 0)"/>
     <use xlink:href="#DejaVuSans-74" transform="translate(368.505859 0)"/>
     <use xlink:href="#DejaVuSans-74" transform="translate(407.714844 0)"/>
     <use xlink:href="#DejaVuSans-65" transform="translate(446.923828 0)"/>
    </g>
    <!-- label -->
    <g transform="translate(371.536183 107.025592) scale(0.1 -0.1)">
     <defs>
      <path id="DejaVuSans-62" d="M 3116 1747 
Q 3116 2381 2855 2742 
Q 2594 3103 2138 3103 
Q 1681 3103 1420 2742 
Q 1159 2381 1159 1747 
Q 1159 1113 1420 752 
Q 1681 391 2138 391 
Q 2594 391 2855 752 
Q 3116 1113 3116 1747 
z
M 1159 2969 
Q 1341 3281 1617 3432 
Q 1894 3584 2278 3584 
Q 2916 3584 3314 3078 
Q 3713 2572 3713 1747 
Q 3713 922 3314 415 
Q 2916 -91 2278 -91 
Q 1894 -91 1617 61 
Q 1341 213 1159 525 
L 1159 0 
L 581 0 
L 581 4863 
L 1159 4863 
L 1159 2969 
z
" transform="scale(0.015625)"/>
     </defs>
     <use xlink:href="#DejaVuSans-6c"/>
     <use xlink:href="#DejaVuSans-61" transform="translate(27.783203 0)"/>
     <use xlink:href="#DejaVuSans-62" transform="translate(89.0625 0)"/>
     <use xlink:href="#DejaVuSans-65" transform="translate(152.539062 0)"/>
     <use xlink:href="#DejaVuSans-6c" transform="translate(214.0625 0)"/>
    </g>
   </g>
   <g id="text_35">
    <!-- cLISI -->
    <g transform="translate(433.740994 101.426685) scale(0.1 -0.1)">
     <defs>
      <path id="DejaVuSans-63" d="M 3122 3366 
L 3122 2828 
Q 2878 2963 2633 3030 
Q 2388 3097 2138 3097 
Q 1578 3097 1268 2742 
Q 959 2388 959 1747 
Q 959 1106 1268 751 
Q 1578 397 2138 397 
Q 2388 397 2633 464 
Q 2878 531 3122 666 
L 3122 134 
Q 2881 22 2623 -34 
Q 2366 -91 2075 -91 
Q 1284 -91 818 406 
Q 353 903 353 1747 
Q 353 2603 823 3093 
Q 1294 3584 2113 3584 
Q 2378 3584 2631 3529 
Q 2884 3475 3122 3366 
z
" transform="scale(0.015625)"/>
      <path id="DejaVuSans-4c" d="M 628 4666 
L 1259 4666 
L 1259 531 
L 3531 531 
L 3531 0 
L 628 0 
L 628 4666 
z
" transform="scale(0.015625)"/>
     </defs>
     <use xlink:href="#DejaVuSans-63"/>
     <use xlink:href="#DejaVuSans-4c" transform="translate(54.980469 0)"/>
     <use xlink:href="#DejaVuSans-49" transform="translate(110.693359 0)"/>
     <use xlink:href="#DejaVuSans-53" transform="translate(140.185547 0)"/>
     <use xlink:href="#DejaVuSans-49" transform="translate(203.662109 0)"/>
    </g>
   </g>
   <g id="text_36">
    <!-- Silhouette -->
    <g transform="translate(481.74893 95.827779) scale(0.1 -0.1)">
     <use xlink:href="#DejaVuSans-53"/>
     <use xlink:href="#DejaVuSans-69" transform="translate(63.476562 0)"/>
     <use xlink:href="#DejaVuSans-6c" transform="translate(91.259766 0)"/>
     <use xlink:href="#DejaVuSans-68" transform="translate(119.042969 0)"/>
     <use xlink:href="#DejaVuSans-6f" transform="translate(182.421875 0)"/>
     <use xlink:href="#DejaVuSans-75" transform="translate(243.603516 0)"/>
     <use xlink:href="#DejaVuSans-65" transform="translate(306.982422 0)"/>
     <use xlink:href="#DejaVuSans-74" transform="translate(368.505859 0)"/>
     <use xlink:href="#DejaVuSans-74" transform="translate(407.714844 0)"/>
     <use xlink:href="#DejaVuSans-65" transform="translate(446.923828 0)"/>
    </g>
    <!-- batch -->
    <g transform="translate(493.05518 107.025592) scale(0.1 -0.1)">
     <use xlink:href="#DejaVuSans-62"/>
     <use xlink:href="#DejaVuSans-61" transform="translate(63.476562 0)"/>
     <use xlink:href="#DejaVuSans-74" transform="translate(124.755859 0)"/>
     <use xlink:href="#DejaVuSans-63" transform="translate(163.964844 0)"/>
     <use xlink:href="#DejaVuSans-68" transform="translate(218.945312 0)"/>
    </g>
   </g>
   <g id="text_37">
    <!-- iLISI -->
    <g transform="translate(558.643586 101.426685) scale(0.1 -0.1)">
     <use xlink:href="#DejaVuSans-69"/>
     <use xlink:href="#DejaVuSans-4c" transform="translate(27.783203 0)"/>
     <use xlink:href="#DejaVuSans-49" transform="translate(83.496094 0)"/>
     <use xlink:href="#DejaVuSans-53" transform="translate(112.988281 0)"/>
     <use xlink:href="#DejaVuSans-49" transform="translate(176.464844 0)"/>
    </g>
   </g>
   <g id="text_38">
    <!-- KBET -->
    <g transform="translate(617.791366 101.426685) scale(0.1 -0.1)">
     <defs>
      <path id="DejaVuSans-42" d="M 1259 2228 
L 1259 519 
L 2272 519 
Q 2781 519 3026 730 
Q 3272 941 3272 1375 
Q 3272 1813 3026 2020 
Q 2781 2228 2272 2228 
L 1259 2228 
z
M 1259 4147 
L 1259 2741 
L 2194 2741 
Q 2656 2741 2882 2914 
Q 3109 3088 3109 3444 
Q 3109 3797 2882 3972 
Q 2656 4147 2194 4147 
L 1259 4147 
z
M 628 4666 
L 2241 4666 
Q 2963 4666 3353 4366 
Q 3744 4066 3744 3513 
Q 3744 3084 3544 2831 
Q 3344 2578 2956 2516 
Q 3422 2416 3680 2098 
Q 3938 1781 3938 1306 
Q 3938 681 3513 340 
Q 3088 0 2303 0 
L 628 0 
L 628 4666 
z
" transform="scale(0.015625)"/>
      <path id="DejaVuSans-45" d="M 628 4666 
L 3578 4666 
L 3578 4134 
L 1259 4134 
L 1259 2753 
L 3481 2753 
L 3481 2222 
L 1259 2222 
L 1259 531 
L 3634 531 
L 3634 0 
L 628 0 
L 628 4666 
z
" transform="scale(0.015625)"/>
      <path id="DejaVuSans-54" d="M -19 4666 
L 3928 4666 
L 3928 4134 
L 2272 4134 
L 2272 0 
L 1638 0 
L 1638 4134 
L -19 4134 
L -19 4666 
z
" transform="scale(0.015625)"/>
     </defs>
     <use xlink:href="#DejaVuSans-4b"/>
     <use xlink:href="#DejaVuSans-42" transform="translate(65.576172 0)"/>
     <use xlink:href="#DejaVuSans-45" transform="translate(134.179688 0)"/>
     <use xlink:href="#DejaVuSans-54" transform="translate(197.363281 0)"/>
    </g>
   </g>
   <g id="text_39">
    <!-- Graph -->
    <g transform="translate(677.148521 95.827779) scale(0.1 -0.1)">
     <defs>
      <path id="DejaVuSans-47" d="M 3809 666 
L 3809 1919 
L 2778 1919 
L 2778 2438 
L 4434 2438 
L 4434 434 
Q 4069 175 3628 42 
Q 3188 -91 2688 -91 
Q 1594 -91 976 548 
Q 359 1188 359 2328 
Q 359 3472 976 4111 
Q 1594 4750 2688 4750 
Q 3144 4750 3555 4637 
Q 3966 4525 4313 4306 
L 4313 3634 
Q 3963 3931 3569 4081 
Q 3175 4231 2741 4231 
Q 1884 4231 1454 3753 
Q 1025 3275 1025 2328 
Q 1025 1384 1454 906 
Q 1884 428 2741 428 
Q 3075 428 3337 486 
Q 3600 544 3809 666 
z
" transform="scale(0.015625)"/>
      <path id="DejaVuSans-72" d="M 2631 2963 
Q 2534 3019 2420 3045 
Q 2306 3072 2169 3072 
Q 1681 3072 1420 2755 
Q 1159 2438 1159 1844 
L 1159 0 
L 581 0 
L 581 3500 
L 1159 3500 
L 1159 2956 
Q 1341 3275 1631 3429 
Q 1922 3584 2338 3584 
Q 2397 3584 2469 3576 
Q 2541 3569 2628 3553 
L 2631 2963 
z
" transform="scale(0.015625)"/>
      <path id="DejaVuSans-70" d="M 1159 525 
L 1159 -1331 
L 581 -1331 
L 581 3500 
L 1159 3500 
L 1159 2969 
Q 1341 3281 1617 3432 
Q 1894 3584 2278 3584 
Q 2916 3584 3314 3078 
Q 3713 2572 3713 1747 
Q 3713 922 3314 415 
Q 2916 -91 2278 -91 
Q 1894 -91 1617 61 
Q 1341 213 1159 525 
z
M 3116 1747 
Q 3116 2381 2855 2742 
Q 2594 3103 2138 3103 
Q 1681 3103 1420 2742 
Q 1159 2381 1159 1747 
Q 1159 1113 1420 752 
Q 1681 391 2138 391 
Q 2594 391 2855 752 
Q 3116 1113 3116 1747 
z
" transform="scale(0.015625)"/>
     </defs>
     <use xlink:href="#DejaVuSans-47"/>
     <use xlink:href="#DejaVuSans-72" transform="translate(77.490234 0)"/>
     <use xlink:href="#DejaVuSans-61" transform="translate(118.603516 0)"/>
     <use xlink:href="#DejaVuSans-70" transform="translate(179.882812 0)"/>
     <use xlink:href="#DejaVuSans-68" transform="translate(243.359375 0)"/>
    </g>
    <!-- connectivity -->
    <g transform="translate(661.896177 107.025592) scale(0.1 -0.1)">
     <defs>
      <path id="DejaVuSans-76" d="M 191 3500 
L 800 3500 
L 1894 563 
L 2988 3500 
L 3597 3500 
L 2284 0 
L 1503 0 
L 191 3500 
z
" transform="scale(0.015625)"/>
      <path id="DejaVuSans-79" d="M 2059 -325 
Q 1816 -950 1584 -1140 
Q 1353 -1331 966 -1331 
L 506 -1331 
L 506 -850 
L 844 -850 
Q 1081 -850 1212 -737 
Q 1344 -625 1503 -206 
L 1606 56 
L 191 3500 
L 800 3500 
L 1894 763 
L 2988 3500 
L 3597 3500 
L 2059 -325 
z
" transform="scale(0.015625)"/>
     </defs>
     <use xlink:href="#DejaVuSans-63"/>
     <use xlink:href="#DejaVuSans-6f" transform="translate(54.980469 0)"/>
     <use xlink:href="#DejaVuSans-6e" transform="translate(116.162109 0)"/>
     <use xlink:href="#DejaVuSans-6e" transform="translate(179.541016 0)"/>
     <use xlink:href="#DejaVuSans-65" transform="translate(242.919922 0)"/>
     <use xlink:href="#DejaVuSans-63" transform="translate(304.443359 0)"/>
     <use xlink:href="#DejaVuSans-74" transform="translate(359.423828 0)"/>
     <use xlink:href="#DejaVuSans-69" transform="translate(398.632812 0)"/>
     <use xlink:href="#DejaVuSans-76" transform="translate(426.416016 0)"/>
     <use xlink:href="#DejaVuSans-69" transform="translate(485.595703 0)"/>
     <use xlink:href="#DejaVuSans-74" transform="translate(513.378906 0)"/>
     <use xlink:href="#DejaVuSans-79" transform="translate(552.587891 0)"/>
    </g>
   </g>
   <g id="text_40">
    <!-- PCR -->
    <g transform="translate(744.275989 95.827779) scale(0.1 -0.1)">
     <defs>
      <path id="DejaVuSans-50" d="M 1259 4147 
L 1259 2394 
L 2053 2394 
Q 2494 2394 2734 2622 
Q 2975 2850 2975 3272 
Q 2975 3691 2734 3919 
Q 2494 4147 2053 4147 
L 1259 4147 
z
M 628 4666 
L 2053 4666 
Q 2838 4666 3239 4311 
Q 3641 3956 3641 3272 
Q 3641 2581 3239 2228 
Q 2838 1875 2053 1875 
L 1259 1875 
L 1259 0 
L 628 0 
L 628 4666 
z
" transform="scale(0.015625)"/>
      <path id="DejaVuSans-43" d="M 4122 4306 
L 4122 3641 
Q 3803 3938 3442 4084 
Q 3081 4231 2675 4231 
Q 1875 4231 1450 3742 
Q 1025 3253 1025 2328 
Q 1025 1406 1450 917 
Q 1875 428 2675 428 
Q 3081 428 3442 575 
Q 3803 722 4122 1019 
L 4122 359 
Q 3791 134 3420 21 
Q 3050 -91 2638 -91 
Q 1578 -91 968 557 
Q 359 1206 359 2328 
Q 359 3453 968 4101 
Q 1578 4750 2638 4750 
Q 3056 4750 3426 4639 
Q 3797 4528 4122 4306 
z
" transform="scale(0.015625)"/>
     </defs>
     <use xlink:href="#DejaVuSans-50"/>
     <use xlink:href="#DejaVuSans-43" transform="translate(60.302734 0)"/>
     <use xlink:href="#DejaVuSans-52" transform="translate(130.126953 0)"/>
    </g>
    <!-- comparison -->
    <g transform="translate(725.061926 107.025592) scale(0.1 -0.1)">
     <defs>
      <path id="DejaVuSans-6d" d="M 3328 2828 
Q 3544 3216 3844 3400 
Q 4144 3584 4550 3584 
Q 5097 3584 5394 3201 
Q 5691 2819 5691 2113 
L 5691 0 
L 5113 0 
L 5113 2094 
Q 5113 2597 4934 2840 
Q 4756 3084 4391 3084 
Q 3944 3084 3684 2787 
Q 3425 2491 3425 1978 
L 3425 0 
L 2847 0 
L 2847 2094 
Q 2847 2600 2669 2842 
Q 2491 3084 2119 3084 
Q 1678 3084 1418 2786 
Q 1159 2488 1159 1978 
L 1159 0 
L 581 0 
L 581 3500 
L 1159 3500 
L 1159 2956 
Q 1356 3278 1631 3431 
Q 1906 3584 2284 3584 
Q 2666 3584 2933 3390 
Q 3200 3197 3328 2828 
z
" transform="scale(0.015625)"/>
     </defs>
     <use xlink:href="#DejaVuSans-63"/>
     <use xlink:href="#DejaVuSans-6f" transform="translate(54.980469 0)"/>
     <use xlink:href="#DejaVuSans-6d" transform="translate(116.162109 0)"/>
     <use xlink:href="#DejaVuSans-70" transform="translate(213.574219 0)"/>
     <use xlink:href="#DejaVuSans-61" transform="translate(277.050781 0)"/>
     <use xlink:href="#DejaVuSans-72" transform="translate(338.330078 0)"/>
     <use xlink:href="#DejaVuSans-69" transform="translate(379.443359 0)"/>
     <use xlink:href="#DejaVuSans-73" transform="translate(407.226562 0)"/>
     <use xlink:href="#DejaVuSans-6f" transform="translate(459.326172 0)"/>
     <use xlink:href="#DejaVuSans-6e" transform="translate(520.507812 0)"/>
    </g>
   </g>
   <g id="text_41">
    <!-- Batch -->
    <g transform="translate(801.655019 95.827779) scale(0.1 -0.1)">
     <use xlink:href="#DejaVuSans-42"/>
     <use xlink:href="#DejaVuSans-61" transform="translate(68.603516 0)"/>
     <use xlink:href="#DejaVuSans-74" transform="translate(129.882812 0)"/>
     <use xlink:href="#DejaVuSans-63" transform="translate(169.091797 0)"/>
     <use xlink:href="#DejaVuSans-68" transform="translate(224.072266 0)"/>
    </g>
    <!-- correction -->
    <g transform="translate(790.905019 107.025592) scale(0.1 -0.1)">
     <use xlink:href="#DejaVuSans-63"/>
     <use xlink:href="#DejaVuSans-6f" transform="translate(54.980469 0)"/>
     <use xlink:href="#DejaVuSans-72" transform="translate(116.162109 0)"/>
     <use xlink:href="#DejaVuSans-72" transform="translate(155.525391 0)"/>
     <use xlink:href="#DejaVuSans-65" transform="translate(194.388672 0)"/>
     <use xlink:href="#DejaVuSans-63" transform="translate(255.912109 0)"/>
     <use xlink:href="#DejaVuSans-74" transform="translate(310.892578 0)"/>
     <use xlink:href="#DejaVuSans-69" transform="translate(350.101562 0)"/>
     <use xlink:href="#DejaVuSans-6f" transform="translate(377.884766 0)"/>
     <use xlink:href="#DejaVuSans-6e" transform="translate(439.066406 0)"/>
    </g>
   </g>
   <g id="text_42">
    <!-- Bio -->
    <g transform="translate(869.919987 95.827779) scale(0.1 -0.1)">
     <use xlink:href="#DejaVuSans-42"/>
     <use xlink:href="#DejaVuSans-69" transform="translate(68.603516 0)"/>
     <use xlink:href="#DejaVuSans-6f" transform="translate(96.386719 0)"/>
    </g>
    <!-- conservation -->
    <g transform="translate(845.484049 107.025592) scale(0.1 -0.1)">
     <use xlink:href="#DejaVuSans-63"/>
     <use xlink:href="#DejaVuSans-6f" transform="translate(54.980469 0)"/>
     <use xlink:href="#DejaVuSans-6e" transform="translate(116.162109 0)"/>
     <use xlink:href="#DejaVuSans-73" transform="translate(179.541016 0)"/>
     <use xlink:href="#DejaVuSans-65" transform="translate(231.640625 0)"/>
     <use xlink:href="#DejaVuSans-72" transform="translate(293.164062 0)"/>
     <use xlink:href="#DejaVuSans-76" transform="translate(334.277344 0)"/>
     <use xlink:href="#DejaVuSans-61" transform="translate(393.457031 0)"/>
     <use xlink:href="#DejaVuSans-74" transform="translate(454.736328 0)"/>
     <use xlink:href="#DejaVuSans-69" transform="translate(493.945312 0)"/>
     <use xlink:href="#DejaVuSans-6f" transform="translate(521.728516 0)"/>
     <use xlink:href="#DejaVuSans-6e" transform="translate(582.910156 0)"/>
    </g>
   </g>
   <g id="text_43">
    <!-- Total -->
    <g transform="translate(927.893548 101.426685) scale(0.1 -0.1)">
     <use xlink:href="#DejaVuSans-54"/>
     <use xlink:href="#DejaVuSans-6f" transform="translate(44.083984 0)"/>
     <use xlink:href="#DejaVuSans-74" transform="translate(105.265625 0)"/>
     <use xlink:href="#DejaVuSans-61" transform="translate(144.474609 0)"/>
     <use xlink:href="#DejaVuSans-6c" transform="translate(205.753906 0)"/>
    </g>
   </g>
   <g id="text_44">
    <!-- Batch correction -->
    <g transform="translate(589.629647 71.02514) scale(0.1 -0.1)">
     <defs>
      <path id="DejaVuSans-20" transform="scale(0.015625)"/>
     </defs>
     <use xlink:href="#DejaVuSans-42"/>
     <use xlink:href="#DejaVuSans-61" transform="translate(68.603516 0)"/>
     <use xlink:href="#DejaVuSans-74" transform="translate(129.882812 0)"/>
     <use xlink:href="#DejaVuSans-63" transform="translate(169.091797 0)"/>
     <use xlink:href="#DejaVuSans-68" transform="translate(224.072266 0)"/>
     <use xlink:href="#DejaVuSans-20" transform="translate(287.451172 0)"/>
     <use xlink:href="#DejaVuSans-63" transform="translate(319.238281 0)"/>
     <use xlink:href="#DejaVuSans-6f" transform="translate(374.21875 0)"/>
     <use xlink:href="#DejaVuSans-72" transform="translate(435.400391 0)"/>
     <use xlink:href="#DejaVuSans-72" transform="translate(474.763672 0)"/>
     <use xlink:href="#DejaVuSans-65" transform="translate(513.626953 0)"/>
     <use xlink:href="#DejaVuSans-63" transform="translate(575.150391 0)"/>
     <use xlink:href="#DejaVuSans-74" transform="translate(630.130859 0)"/>
     <use xlink:href="#DejaVuSans-69" transform="translate(669.339844 0)"/>
     <use xlink:href="#DejaVuSans-6f" transform="translate(697.123047 0)"/>
     <use xlink:href="#DejaVuSans-6e" transform="translate(758.304688 0)"/>
    </g>
   </g>
   <g id="text_45">
    <!-- Aggregate score -->
    <g transform="translate(836.713737 71.02514) scale(0.1 -0.1)">
     <defs>
      <path id="DejaVuSans-67" d="M 2906 1791 
Q 2906 2416 2648 2759 
Q 2391 3103 1925 3103 
Q 1463 3103 1205 2759 
Q 947 2416 947 1791 
Q 947 1169 1205 825 
Q 1463 481 1925 481 
Q 2391 481 2648 825 
Q 2906 1169 2906 1791 
z
M 3481 434 
Q 3481 -459 3084 -895 
Q 2688 -1331 1869 -1331 
Q 1566 -1331 1297 -1286 
Q 1028 -1241 775 -1147 
L 775 -588 
Q 1028 -725 1275 -790 
Q 1522 -856 1778 -856 
Q 2344 -856 2625 -561 
Q 2906 -266 2906 331 
L 2906 616 
Q 2728 306 2450 153 
Q 2172 0 1784 0 
Q 1141 0 747 490 
Q 353 981 353 1791 
Q 353 2603 747 3093 
Q 1141 3584 1784 3584 
Q 2172 3584 2450 3431 
Q 2728 3278 2906 2969 
L 2906 3500 
L 3481 3500 
L 3481 434 
z
" transform="scale(0.015625)"/>
     </defs>
     <use xlink:href="#DejaVuSans-41"/>
     <use xlink:href="#DejaVuSans-67" transform="translate(68.408203 0)"/>
     <use xlink:href="#DejaVuSans-67" transform="translate(131.884766 0)"/>
     <use xlink:href="#DejaVuSans-72" transform="translate(195.361328 0)"/>
     <use xlink:href="#DejaVuSans-65" transform="translate(234.224609 0)"/>
     <use xlink:href="#DejaVuSans-67" transform="translate(295.748047 0)"/>
     <use xlink:href="#DejaVuSans-61" transform="translate(359.224609 0)"/>
     <use xlink:href="#DejaVuSans-74" transform="translate(420.503906 0)"/>
     <use xlink:href="#DejaVuSans-65" transform="translate(459.712891 0)"/>
     <use xlink:href="#DejaVuSans-20" transform="translate(521.236328 0)"/>
     <use xlink:href="#DejaVuSans-73" transform="translate(553.023438 0)"/>
     <use xlink:href="#DejaVuSans-63" transform="translate(605.123047 0)"/>
     <use xlink:href="#DejaVuSans-6f" transform="translate(660.103516 0)"/>
     <use xlink:href="#DejaVuSans-72" transform="translate(721.285156 0)"/>
     <use xlink:href="#DejaVuSans-65" transform="translate(760.148438 0)"/>
    </g>
   </g>
   <g id="text_46">
    <!-- Bio conservation -->
    <g transform="translate(310.96073 71.02514) scale(0.1 -0.1)">
     <use xlink:href="#DejaVuSans-42"/>
     <use xlink:href="#DejaVuSans-69" transform="translate(68.603516 0)"/>
     <use xlink:href="#DejaVuSans-6f" transform="translate(96.386719 0)"/>
     <use xlink:href="#DejaVuSans-20" transform="translate(157.568359 0)"/>
     <use xlink:href="#DejaVuSans-63" transform="translate(189.355469 0)"/>
     <use xlink:href="#DejaVuSans-6f" transform="translate(244.335938 0)"/>
     <use xlink:href="#DejaVuSans-6e" transform="translate(305.517578 0)"/>
     <use xlink:href="#DejaVuSans-73" transform="translate(368.896484 0)"/>
     <use xlink:href="#DejaVuSans-65" transform="translate(420.996094 0)"/>
     <use xlink:href="#DejaVuSans-72" transform="translate(482.519531 0)"/>
     <use xlink:href="#DejaVuSans-76" transform="translate(523.632812 0)"/>
     <use xlink:href="#DejaVuSans-61" transform="translate(582.8125 0)"/>
     <use xlink:href="#DejaVuSans-74" transform="translate(644.091797 0)"/>
     <use xlink:href="#DejaVuSans-69" transform="translate(683.300781 0)"/>
     <use xlink:href="#DejaVuSans-6f" transform="translate(711.083984 0)"/>
     <use xlink:href="#DejaVuSans-6e" transform="translate(772.265625 0)"/>
    </g>
   </g>
  </g>
  <g id="axes_2">
   <g id="patch_102">
    <path d="M 786.61281 152.774566 
L 827.441643 152.774566 
L 827.441643 129.768331 
L 786.61281 129.768331 
z
" clip-path="url(#pc8e9c6c86f)" style="fill: #2075b3"/>
   </g>
   <g id="text_47">
    <!-- 0.69 -->
    <g transform="translate(803.705275 144.030823) scale(0.1 -0.1)">
     <use xlink:href="#DejaVuSans-30"/>
     <use xlink:href="#DejaVuSans-2e" transform="translate(63.623047 0)"/>
     <use xlink:href="#DejaVuSans-36" transform="translate(95.410156 0)"/>
     <use xlink:href="#DejaVuSans-39" transform="translate(159.033203 0)"/>
    </g>
   </g>
  </g>
  <g id="axes_3">
   <g id="patch_103">
    <path d="M 848.384027 152.774566 
L 893.432995 152.774566 
L 893.432995 129.768331 
L 848.384027 129.768331 
z
" clip-path="url(#pabf2294489)" style="fill: #2258a5"/>
   </g>
   <g id="text_48">
    <!-- 0.77 -->
    <g transform="translate(869.696627 144.030823) scale(0.1 -0.1)">
     <use xlink:href="#DejaVuSans-30"/>
     <use xlink:href="#DejaVuSans-2e" transform="translate(63.623047 0)"/>
     <use xlink:href="#DejaVuSans-37" transform="translate(95.410156 0)"/>
     <use xlink:href="#DejaVuSans-37" transform="translate(159.033203 0)"/>
    </g>
   </g>
  </g>
  <g id="axes_4">
   <g id="patch_104">
    <path d="M 910.155245 152.774566 
L 953.516159 152.774566 
L 953.516159 129.768331 
L 910.155245 129.768331 
z
" clip-path="url(#p0ea9a6be19)" style="fill: #2163aa"/>
   </g>
   <g id="text_49">
    <!-- 0.74 -->
    <g transform="translate(929.779791 144.030823) scale(0.1 -0.1)">
     <use xlink:href="#DejaVuSans-30"/>
     <use xlink:href="#DejaVuSans-2e" transform="translate(63.623047 0)"/>
     <use xlink:href="#DejaVuSans-37" transform="translate(95.410156 0)"/>
     <use xlink:href="#DejaVuSans-34" transform="translate(159.033203 0)"/>
    </g>
   </g>
  </g>
  <g id="axes_5">
   <g id="patch_105">
    <path d="M 786.61281 195.378703 
L 820.682478 195.378703 
L 820.682478 172.372469 
L 786.61281 172.372469 
z
" clip-path="url(#p5f5af3774a)" style="fill: #2a9ec1"/>
   </g>
   <g id="text_50">
    <!-- 0.58 -->
    <g transform="translate(796.946109 186.634961) scale(0.1 -0.1)">
     <use xlink:href="#DejaVuSans-30"/>
     <use xlink:href="#DejaVuSans-2e" transform="translate(63.623047 0)"/>
     <use xlink:href="#DejaVuSans-35" transform="translate(95.410156 0)"/>
     <use xlink:href="#DejaVuSans-38" transform="translate(159.033203 0)"/>
    </g>
   </g>
  </g>
  <g id="axes_6">
   <g id="patch_106">
    <path d="M 848.384027 195.378703 
L 890.681069 195.378703 
L 890.681069 172.372469 
L 848.384027 172.372469 
z
" clip-path="url(#p185d3cf77a)" style="fill: #216aad"/>
   </g>
   <g id="text_51">
    <!-- 0.72 -->
    <g transform="translate(866.9447 186.634961) scale(0.1 -0.1)">
     <use xlink:href="#DejaVuSans-30"/>
     <use xlink:href="#DejaVuSans-2e" transform="translate(63.623047 0)"/>
     <use xlink:href="#DejaVuSans-37" transform="translate(95.410156 0)"/>
     <use xlink:href="#DejaVuSans-32" transform="translate(159.033203 0)"/>
    </g>
   </g>
  </g>
  <g id="axes_7">
   <g id="patch_107">
    <path d="M 910.155245 195.378703 
L 949.161337 195.378703 
L 949.161337 172.372469 
L 910.155245 172.372469 
z
" clip-path="url(#p89514434f8)" style="fill: #1f82b9"/>
   </g>
   <g id="text_52">
    <!-- 0.66 -->
    <g transform="translate(925.424969 186.634961) scale(0.1 -0.1)">
     <use xlink:href="#DejaVuSans-30"/>
     <use xlink:href="#DejaVuSans-2e" transform="translate(63.623047 0)"/>
     <use xlink:href="#DejaVuSans-36" transform="translate(95.410156 0)"/>
     <use xlink:href="#DejaVuSans-36" transform="translate(159.033203 0)"/>
    </g>
   </g>
  </g>
  <g id="axes_8">
   <g id="patch_108">
    <path d="M 786.61281 237.982841 
L 814.91807 237.982841 
L 814.91807 214.976607 
L 786.61281 214.976607 
z
" clip-path="url(#p105b45007c)" style="fill: #4ab9c3"/>
   </g>
   <g id="text_53">
    <!-- 0.48 -->
    <g transform="translate(816.388814 229.239099) scale(0.1 -0.1)">
     <use xlink:href="#DejaVuSans-30"/>
     <use xlink:href="#DejaVuSans-2e" transform="translate(63.623047 0)"/>
     <use xlink:href="#DejaVuSans-34" transform="translate(95.410156 0)"/>
     <use xlink:href="#DejaVuSans-38" transform="translate(159.033203 0)"/>
    </g>
   </g>
  </g>
  <g id="axes_9">
   <g id="patch_109">
    <path d="M 848.384027 237.982841 
L 891.940034 237.982841 
L 891.940034 214.976607 
L 848.384027 214.976607 
z
" clip-path="url(#p8b07a20336)" style="fill: #2262aa"/>
   </g>
   <g id="text_54">
    <!-- 0.74 -->
    <g transform="translate(868.203665 229.239099) scale(0.1 -0.1)">
     <use xlink:href="#DejaVuSans-30"/>
     <use xlink:href="#DejaVuSans-2e" transform="translate(63.623047 0)"/>
     <use xlink:href="#DejaVuSans-37" transform="translate(95.410156 0)"/>
     <use xlink:href="#DejaVuSans-34" transform="translate(159.033203 0)"/>
    </g>
   </g>
  </g>
  <g id="axes_10">
   <g id="patch_110">
    <path d="M 910.155245 237.982841 
L 947.610953 237.982841 
L 947.610953 214.976607 
L 910.155245 214.976607 
z
" clip-path="url(#pf706ab71a9)" style="fill: #1d8dbe"/>
   </g>
   <g id="text_55">
    <!-- 0.64 -->
    <g transform="translate(923.874585 229.239099) scale(0.1 -0.1)">
     <use xlink:href="#DejaVuSans-30"/>
     <use xlink:href="#DejaVuSans-2e" transform="translate(63.623047 0)"/>
     <use xlink:href="#DejaVuSans-36" transform="translate(95.410156 0)"/>
     <use xlink:href="#DejaVuSans-34" transform="translate(159.033203 0)"/>
    </g>
   </g>
  </g>
 </g>
 <defs>
  <clipPath id="p8decaa2609">
   <rect x="135" y="33.696" width="837" height="216.216"/>
  </clipPath>
  <clipPath id="pc8e9c6c86f">
   <rect x="785.142066" y="128.490207" width="61.771218" height="25.562483"/>
  </clipPath>
  <clipPath id="pabf2294489">
   <rect x="846.913284" y="128.490207" width="61.771218" height="25.562483"/>
  </clipPath>
  <clipPath id="p0ea9a6be19">
   <rect x="908.684502" y="128.490207" width="61.771218" height="25.562483"/>
  </clipPath>
  <clipPath id="p5f5af3774a">
   <rect x="785.142066" y="171.094345" width="61.771218" height="25.562483"/>
  </clipPath>
  <clipPath id="p185d3cf77a">
   <rect x="846.913284" y="171.094345" width="61.771218" height="25.562483"/>
  </clipPath>
  <clipPath id="p89514434f8">
   <rect x="908.684502" y="171.094345" width="61.771218" height="25.562483"/>
  </clipPath>
  <clipPath id="p105b45007c">
   <rect x="785.142066" y="213.698483" width="61.771218" height="25.562483"/>
  </clipPath>
  <clipPath id="p8b07a20336">
   <rect x="846.913284" y="213.698483" width="61.771218" height="25.562483"/>
  </clipPath>
  <clipPath id="pf706ab71a9">
   <rect x="908.684502" y="213.698483" width="61.771218" height="25.562483"/>
  </clipPath>
 </defs>
</svg>
